<svg class="animated" id="freepik_stories-scrum-method" xmlns="http://www.w3.org/2000/svg" viewBox="0 0 750 500" version="1.1" xmlns:xlink="http://www.w3.org/1999/xlink" xmlns:svgjs="http://svgjs.com/svgjs"><style>svg#freepik_stories-scrum-method:not(.animated) .animable {opacity: 0;}svg#freepik_stories-scrum-method.animated #freepik--Target--inject-97 {animation: 1.5s Infinite  linear floating;animation-delay: 0s;}svg#freepik_stories-scrum-method.animated #freepik--Clock--inject-97 {animation: 6s Infinite  linear spin;animation-delay: 0s;}svg#freepik_stories-scrum-method.animated #freepik--character-1--inject-97 {animation: 1.5s Infinite  linear floating;animation-delay: 0s;}svg#freepik_stories-scrum-method.animated #freepik--character-2--inject-97 {animation: 1s 1 forwards cubic-bezier(.36,-0.01,.5,1.38) slideLeft,1.5s Infinite  linear wind;animation-delay: 0s,1s;}            @keyframes floating {                0% {                    opacity: 1;                    transform: translateY(0px);                }                50% {                    transform: translateY(-10px);                }                100% {                    opacity: 1;                    transform: translateY(0px);                }            }                 @keyframes spin {             from {                 transform: rotate(0);               }               to {                 transform: rotate(360deg);               }         }                 @keyframes slideLeft {                0% {                    opacity: 0;                    transform: translateX(-30px);                }                100% {                    opacity: 1;                    transform: translateX(0);                }            }                    @keyframes wind {                0% {                    transform: rotate( 0deg );                }                25% {                    transform: rotate( 1deg );                }                75% {                    transform: rotate( -1deg );                }            }        </style><g id="freepik--background-simple--inject-97" class="animable" style="transform-origin: 378.585px 229.315px;"><path d="M215.7,64.79l2.2,1.47C236.46,78.61,247.07,100,244.76,122a58.43,58.43,0,0,1-1.51,8.38c-5.12,19.85-21,36.64-40.69,43.06-11.58,3.77-24.76,4.41-34.15,12.1-12.22,10-13.34,27.8-13.5,43.48s-1.32,33.48-13.59,43.43c-7.68,6.23-18.3,7.87-28.2,6.93-26.21-2.49-48.94-21.77-59.64-45.54s-10.62-51.22-4.42-76.48c8.68-35.39,29.85-68.51,61.22-87.64S183.44,47.1,215.7,64.79Z" style="fill: rgb(245, 245, 245); transform-origin: 144.95px 166.447px;" id="el2wbnx3ax26j" class="animable"></path><path d="M541.47,393.81l-2.2-1.46c-18.56-12.35-29.17-33.72-26.86-55.69a58.19,58.19,0,0,1,1.51-8.38c5.12-19.85,21-36.65,40.69-43.06,11.58-3.78,24.76-4.42,34.15-12.1,12.22-10,13.33-27.8,13.5-43.48s1.32-33.48,13.59-43.43c7.68-6.23,18.3-7.87,28.2-6.93,26.21,2.49,48.94,21.77,59.64,45.54s10.62,51.22,4.42,76.48c-8.68,35.39-29.85,68.51-61.22,87.64S573.73,411.51,541.47,393.81Z" style="fill: rgb(245, 245, 245); transform-origin: 612.22px 292.198px;" id="elsye0ft465uf" class="animable"></path><circle cx="638.61" cy="106.9" r="45.34" style="fill: rgb(245, 245, 245); transform-origin: 638.61px 106.9px;" id="elfuae519legh" class="animable"></circle></g><g id="freepik--Floor--inject-97" class="animable" style="transform-origin: 375px 469.59px;"><path d="M699.34,469.59c0,.14-145.22.26-324.32.26s-324.36-.12-324.36-.26,145.19-.26,324.36-.26S699.34,469.44,699.34,469.59Z" style="fill: rgb(38, 50, 56); transform-origin: 375px 469.59px;" id="eloh1u9t78fyc" class="animable"></path></g><g id="freepik--Target--inject-97" class="animable" style="transform-origin: 604.86px 384.624px;"><polyline points="569.3 414.93 555.67 470.22 566.31 470.22 580.38 419.05 570.88 416.33" style="fill: rgb(69, 90, 100); transform-origin: 568.025px 442.575px;" id="elahpq8cr1njd" class="animable"></polyline><polyline points="637.34 414.93 650.97 470.22 640.33 470.22 626.26 419.05 635.76 416.33" style="fill: rgb(69, 90, 100); transform-origin: 638.615px 442.575px;" id="ellbusop9bdi" class="animable"></polyline><g id="el7l3q6nt8srf"><circle cx="604.86" cy="384.26" r="57.58" style="fill: rgb(244, 169, 66); transform-origin: 604.86px 384.26px; transform: rotate(-45deg);" class="animable"></circle></g><g id="elr7r8tdz3g8f"><g style="opacity: 0.3; transform-origin: 604.86px 384.26px;" class="animable"><g id="elro58j5qks7k"><circle cx="604.86" cy="384.26" r="57.58" class="animable" style="transform-origin: 604.86px 384.26px; transform: rotate(-45deg);"></circle></g></g></g><g id="el8xl74deiwcp"><circle cx="603.32" cy="376.97" r="57.58" style="fill: rgb(244, 169, 66); transform-origin: 603.32px 376.97px; transform: rotate(-28.17deg);" class="animable"></circle></g><g id="elu47z9tw1j4r"><circle cx="603.32" cy="376.97" r="38.57" style="fill: rgb(255, 255, 255); transform-origin: 603.32px 376.97px; transform: rotate(-53.73deg);" class="animable"></circle></g><path d="M622.19,377.44a18.88,18.88,0,1,1-18.4-19.34A18.88,18.88,0,0,1,622.19,377.44Z" style="fill: rgb(244, 169, 66); transform-origin: 603.316px 376.974px;" id="elshmkm5w9cb" class="animable"></path><polygon points="644.49 335.83 643.23 323.51 656.07 310.44 656.64 323.72 644.49 335.83" style="fill: rgb(69, 90, 100); transform-origin: 649.935px 323.135px;" id="ele6e0ceccpit" class="animable"></polygon><polygon points="671.57 326.73 658.91 325.38 645.89 337.29 658.58 338.97 671.57 326.73" style="fill: rgb(69, 90, 100); transform-origin: 658.73px 332.175px;" id="el3zc49at1pgr" class="animable"></polygon><g id="elhdnwyc0fhjg"><g style="opacity: 0.3; transform-origin: 628.275px 357.075px;" class="animable"><path d="M605.85,376.76l44.85-32.51a53.53,53.53,0,0,0-5.34-6.86l-39.44,36.37Z" id="elrbwtqoo19aj" class="animable" style="transform-origin: 628.275px 357.075px;"></path></g></g><path d="M657.2,321.88l-18.37,17.47-29.14,27.73-6.7,6.37c-2.12,2,1,5.3,3.16,3.28l18.37-17.48,29.14-27.72,6.7-6.38c2.12-2-1-5.29-3.16-3.27Z" style="fill: rgb(38, 50, 56); transform-origin: 631.675px 349.304px;" id="elpy9afkjogdm" class="animable"></path></g><g id="freepik--light-bulb--inject-97" class="animable" style="transform-origin: 183.559px 407.215px;"><path d="M235,402.61A33.46,33.46,0,0,0,201.4,368c-18.94.1-34.61,15.73-35,34.92a33.71,33.71,0,0,0,19,31.34c-.09,4.12-.18,8.76-.18,8.76l30-.15s.29-4.92.44-9.31A35.9,35.9,0,0,0,235,402.61Z" style="fill: rgb(244, 169, 66); transform-origin: 200.702px 405.51px;" id="el808err8nb3h" class="animable"></path><path d="M196.87,442.73c0-11.27.85-22.54.71-33.81,0-2.28-.1-4.56-.32-6.82-.27-2.84-.86-6-3.44-7.56a4.34,4.34,0,0,0-3.81-.44,5.57,5.57,0,0,0-2.76,2.72,14.36,14.36,0,0,0-1.28,8.33,15,15,0,0,0,9.54,12.39,15.61,15.61,0,0,0,15.77-3.17c4.15-3.9,6.47-10.62,4.59-16.07-.81-2.35-2.78-5-5.56-4.66s-4,3-4.67,5.4a53,53,0,0,0-1.16,8.5c-.3,3.28-.51,6.57-.68,9.86-.37,6.77-.57,13.54-.93,20.32-.08,1.49-.17,3-.27,4.48,0,.51.74.47.77,0,.83-12,.81-24,2-36a35.29,35.29,0,0,1,1.31-8A6.14,6.14,0,0,1,208.9,395a3.35,3.35,0,0,1,3.75.07c2.38,1.59,3.09,4.84,3,7.57a15.87,15.87,0,0,1-2.4,8.07,14.69,14.69,0,0,1-14.16,6.9A13.89,13.89,0,0,1,187.41,408a15.31,15.31,0,0,1-.48-7.92c.55-2.63,2.26-6.34,5.52-5.34s3.78,4.6,4.05,7.48c.19,2,.25,4,.29,6,.19,10.44-.46,20.89-.66,31.34,0,1,0,2.11,0,3.17,0,.5.77.47.78,0Z" style="fill: rgb(255, 255, 255); transform-origin: 201.175px 418.352px;" id="elvy8jetwuik" class="animable"></path><g id="freepik--2ggvdetif--inject-97" class="animable" style="transform-origin: 199.92px 461.925px;"><path d="M193.26,460.68a9.09,9.09,0,0,1,1.93,1.76,2,2,0,0,0,1.58.76l6,0a2.09,2.09,0,0,0,1.72-.91,3.86,3.86,0,0,1,2.09-1.64Z" style="fill: rgb(69, 90, 100); transform-origin: 199.92px 461.925px;" id="els2yirpcqez" class="animable"></path></g><path d="M187.05,443.66c0,.12,1.21,9.69,1.68,13.34a4.38,4.38,0,0,0,2.43,3.46,4.14,4.14,0,0,0,1.71.37l13.23-.08s3.45,0,4.29-2.8,2.67-14.44,2.67-14.44Z" style="fill: rgb(38, 50, 56); transform-origin: 200.055px 452.17px;" id="el5y5mulvy4di" class="animable"></path><path d="M211.26,456.66l-23,.22a.64.64,0,0,1-.64-.66v-.07a.67.67,0,0,1,.66-.67l23-.22a.64.64,0,0,1,.65.66V456A.68.68,0,0,1,211.26,456.66Z" style="fill: rgb(224, 224, 224); transform-origin: 199.775px 456.07px;" id="el6uizj1lo49x" class="animable"></path><path d="M211.26,456.66a.8.8,0,0,0,.45-.21.67.67,0,0,0,.18-.56.59.59,0,0,0-.47-.57c-1.25,0-3.11,0-5.38.07l-17.8.2a.57.57,0,0,0-.46.25.62.62,0,0,0-.09.26.65.65,0,0,0,0,.28.53.53,0,0,0,.35.36,3.83,3.83,0,0,0,.6,0l2.5,0,4.73,0,8-.05,5.39,0h1.85l-.38,0-1.47,0-5.39.09-8,.1-4.73,0-2.5,0h-.32a1.08,1.08,0,0,1-.35,0,.77.77,0,0,1-.5-.52,1.09,1.09,0,0,1,0-.36.81.81,0,0,1,.78-.72l17.79-.13c2.28,0,4.11,0,5.4,0a.69.69,0,0,1,.52.65.75.75,0,0,1-.22.6A.6.6,0,0,1,211.26,456.66Z" style="fill: rgb(38, 50, 56); transform-origin: 199.709px 456.022px;" id="elvmx86w29gv" class="animable"></path><path d="M211.81,453.64l-24,.23a.64.64,0,0,1-.64-.66v-.07a.67.67,0,0,1,.66-.67l24-.23a.65.65,0,0,1,.65.66V453A.67.67,0,0,1,211.81,453.64Z" style="fill: rgb(224, 224, 224); transform-origin: 199.825px 453.055px;" id="elq9vmatfo7lm" class="animable"></path><path d="M211.81,453.64a.7.7,0,0,0,.63-.81.61.61,0,0,0-.54-.54l-5.6.08-18.49.21a.56.56,0,0,0-.47.27.61.61,0,0,0-.08.27.68.68,0,0,0,0,.29.52.52,0,0,0,.41.33c.17,0,.43,0,.64,0l2.59,0,4.91,0,8.31-.06h7.52l-.39,0-1.53,0-5.6.09-8.31.11-4.91.05-2.6,0c-.23,0-.42,0-.68,0a.77.77,0,0,1-.57-.48,1,1,0,0,1,0-.38.76.76,0,0,1,.11-.38.8.8,0,0,1,.67-.38l18.48-.14c2.37,0,4.28,0,5.61,0a.69.69,0,0,1,.6.62.76.76,0,0,1-.21.62A.6.6,0,0,1,211.81,453.64Z" style="fill: rgb(38, 50, 56); transform-origin: 199.779px 453.05px;" id="elrod7jii0kej" class="animable"></path><path d="M212.18,450.62l-24.64.23a.63.63,0,0,1-.64-.65v-.08a.68.68,0,0,1,.66-.67l24.64-.23a.65.65,0,0,1,.65.66V450A.68.68,0,0,1,212.18,450.62Z" style="fill: rgb(224, 224, 224); transform-origin: 199.875px 450.035px;" id="elhvccldd4w4h" class="animable"></path><path d="M212.18,450.62a.72.72,0,0,0,.47-.23.77.77,0,0,0,.16-.61.6.6,0,0,0-.58-.51l-5.74.09-18.93.21a.57.57,0,0,0-.48.28.64.64,0,0,0-.07.28.54.54,0,0,0,0,.29.53.53,0,0,0,.43.32h.67l2.66,0,5,0,8.51-.05,5.74,0h2.1l-.14,0h-.4l-1.57,0-5.73.09-8.51.1-5,.06-2.66,0c-.23,0-.43,0-.68,0a.76.76,0,0,1-.67-.83.78.78,0,0,1,.1-.39.81.81,0,0,1,.68-.4l18.92-.14,5.74,0a.67.67,0,0,1,.64.59.76.76,0,0,1-.19.65C212.4,450.69,212.17,450.62,212.18,450.62Z" style="fill: rgb(38, 50, 56); transform-origin: 199.804px 450.06px;" id="ela73r7351zan" class="animable"></path><path d="M212.74,447.6l-25.64.25a.64.64,0,0,1-.64-.66v-.08a.68.68,0,0,1,.66-.67l25.64-.24a.65.65,0,0,1,.65.66v.07A.67.67,0,0,1,212.74,447.6Z" style="fill: rgb(224, 224, 224); transform-origin: 199.935px 447.025px;" id="elez6xmj4zq6o" class="animable"></path><path d="M212.74,447.6a.7.7,0,0,0,.62-.88.61.61,0,0,0-.65-.47l-6,.09-19.64.22a.57.57,0,0,0-.49.3.68.68,0,0,0,0,.59.51.51,0,0,0,.48.28h.7l2.76,0,5.21,0,8.83-.06,5.95,0h2.18l-.14,0h-.43l-1.61,0-6,.09-8.82.11-5.22.05-2.75,0h-.71a.76.76,0,0,1-.67-.4.93.93,0,0,1-.09-.4.82.82,0,0,1,.1-.4.78.78,0,0,1,.69-.43l19.63-.15,6,0a.67.67,0,0,1,.71.54.82.82,0,0,1-.16.68.69.69,0,0,1-.38.22Z" style="fill: rgb(38, 50, 56); transform-origin: 199.824px 447.029px;" id="eld1y78kyhcei" class="animable"></path><path d="M183.89,435.41c0,.25.42,6.11.64,9.12a3.52,3.52,0,0,0,1.57,2.69l1.33.88L213,448l1.35-.88a3.74,3.74,0,0,0,1.67-2.75l.94-9.1Z" style="fill: rgb(224, 224, 224); transform-origin: 200.425px 441.685px;" id="elylfcfb1gjzp" class="animable"></path><g id="elm462mj1cbr"><g style="opacity: 0.3; transform-origin: 199.765px 457.045px;" class="animable"><path d="M189.08,456.81a33.13,33.13,0,0,0,7.61.56c2.18,0,4.32,0,6.69,0,1.74-.05,3.34-.15,5.07-.23a4.89,4.89,0,0,0,2-.45Z" id="el8wdi60juyif" class="animable" style="transform-origin: 199.765px 457.045px;"></path></g></g><g id="elyndoea0kdx"><g style="opacity: 0.3; transform-origin: 199.76px 454.012px;" class="animable"><path d="M188.23,453.79a37.82,37.82,0,0,0,8.2.55c2.35,0,4.66,0,7.22,0,1.87-.05,3.59-.14,5.46-.23a5.41,5.41,0,0,0,2.18-.46Z" id="el2yk8xqsewka" class="animable" style="transform-origin: 199.76px 454.012px;"></path></g></g><g id="elksni7qvk2qf"><g style="opacity: 0.3; transform-origin: 199.815px 451.022px;" class="animable"><path d="M188.28,450.8a37.91,37.91,0,0,0,8.21.55c2.35,0,4.66,0,7.21,0,1.88-.05,3.6-.15,5.47-.23a5.64,5.64,0,0,0,2.18-.46Z" id="elmydzl2e9dw" class="animable" style="transform-origin: 199.815px 451.022px;"></path></g></g><g id="el3uxbazodwif"><g style="opacity: 0.3; transform-origin: 199.875px 448.031px;" class="animable"><path d="M188.34,447.8a37.9,37.9,0,0,0,8.21.56c2.35,0,4.66,0,7.21,0,1.88-.05,3.6-.15,5.47-.24a5.5,5.5,0,0,0,2.18-.45Z" id="elwexasupimk" class="animable" style="transform-origin: 199.875px 448.031px;"></path></g></g><path d="M215.37,445.57c0,.06-6.84.15-15.27.2s-15.28,0-15.28,0,6.84-.15,15.28-.2S215.37,445.51,215.37,445.57Z" style="fill: rgb(38, 50, 56); transform-origin: 200.095px 445.66px;" id="elnpym4jxob1" class="animable"></path><path d="M216.78,435.05c0,.07-7.42.2-16.59.29s-16.59.1-16.59,0,7.42-.2,16.59-.29S216.78,435,216.78,435.05Z" style="fill: rgb(38, 50, 56); transform-origin: 200.19px 435.204px;" id="el6fatdjmqmk8" class="animable"></path><g id="ele70fjc9t7lu"><g style="opacity: 0.2; transform-origin: 210.12px 383.02px;" class="animable"><path d="M194.31,378.27a6,6,0,0,1,2.38-4.23,10.18,10.18,0,0,1,7.3-2.4c7.73.45,13,2.84,18.26,9,1.78,2.08,3.84,5.9,3.67,8.82a5.47,5.47,0,0,1-1.82,3.84c-2.92,2.48-6.93.45-9.27-2.17-2.19-2.44-3.91-5.54-6.91-6.85-2.47-1.08-5.32-.72-8-1.11S194.34,381,194.31,378.27Z" style="fill: rgb(255, 255, 255); transform-origin: 210.12px 383.02px;" id="ellsthctx0vve" class="animable"></path></g></g><g id="elp1k9i16j4ir"><g style="opacity: 0.2; transform-origin: 226.372px 401.951px;" class="animable"><path d="M221.89,400.57a5.23,5.23,0,0,1,5.39-3.33,5.08,5.08,0,0,1,3.42,2.95,5,5,0,0,1-1.19,5.3,4.5,4.5,0,0,1-5.28.61C222.64,405.11,221.26,402.39,221.89,400.57Z" style="fill: rgb(255, 255, 255); transform-origin: 226.372px 401.951px;" id="el95scjh9dmbh" class="animable"></path></g></g><path d="M159.67,379.81c-.08.12-6.31-3.77-13.93-8.69s-13.72-9-13.64-9.13,6.31,3.77,13.93,8.69S159.75,379.69,159.67,379.81Z" style="fill: rgb(38, 50, 56); transform-origin: 145.885px 370.9px;" id="elz2cem2keudm" class="animable"></path><path d="M167,366.75a88.24,88.24,0,0,1-5.84-7.61,88.4,88.4,0,0,1-5.42-7.91,88.24,88.24,0,0,1,5.84,7.61A85.91,85.91,0,0,1,167,366.75Z" style="fill: rgb(38, 50, 56); transform-origin: 161.37px 358.99px;" id="elrwf1onh09y" class="animable"></path><path d="M154.88,393.62a26.77,26.77,0,0,1-2.9-.26c-1.81-.21-4.32-.52-7.08-.9s-5.26-.75-7.07-1c-.9-.15-1.63-.29-2.13-.4l-.57-.15a.39.39,0,0,1-.16-.07c.06-.1.06,0,.07,0a3.49,3.49,0,0,1,.69.05l2.16.23c1.81.22,4.31.53,7.08.91C150.47,392.7,155,393.43,154.88,393.62Z" style="fill: rgb(38, 50, 56); transform-origin: 144.926px 392.208px;" id="elhxed1qfwrjq" class="animable"></path></g><g id="freepik--Clock--inject-97" class="animable" style="transform-origin: 480.666px 162.942px;"><path d="M413.63,247.7a98.18,98.18,0,1,1,148.22-29.59l-26.94-14.58a67.57,67.57,0,1,0-102,20.38Z" style="fill: rgb(69, 90, 100); transform-origin: 475.47px 160.481px;" id="eldu9yilgq3e" class="animable"></path><g id="elk8i3l61l6c"><g style="opacity: 0.3; transform-origin: 481.819px 153.643px;" class="animable"><path d="M531.47,122.38l2.52,2.85,9-7.88c-.32-.66-.67-1.3-1-1.93,0,0,0-.09,0-.11s0,0-.08,0a25,25,0,0,0-1.75-2.59h0a29.33,29.33,0,0,0-4.85-4.86v0h0c-.62-.5-1.26-1-1.93-1.45l-9,7.88,2.45,2.79-2.89,2.54a60.85,60.85,0,0,0-34.5-16.47l.23-5.36,4.5.18.57-13.86c.15-.09.23-.16.22-.18s-.08,0-.21,0v0a33,33,0,0,0-17.28-.72v.12c-.05,0-.08,0-.09,0s0,.06.08.11l-.57,13.86,4.39.19-.22,5.21a60.75,60.75,0,0,0-37.27,13.21l-2.7-3.42,3-2.36-7.4-9.36c-.68.28-1.34.59-2,.93,0,0-.09,0-.1,0s0,0,0,.09a24.38,24.38,0,0,0-2.68,1.61h0a29.37,29.37,0,0,0-5.12,4.59h0a0,0,0,0,1,0,0c-.52.59-1,1.2-1.54,1.85l7.39,9.36,2.92-2.3,2.95,3.74a61.09,61.09,0,1,0,90.3,4.23Z" id="el700wkbet289" class="animable" style="transform-origin: 481.819px 153.643px;"></path></g></g><g id="elyzb0gpqbbka"><rect x="432.08" y="113.47" width="7.09" height="11.07" style="fill: rgb(38, 50, 56); transform-origin: 435.625px 119.005px; transform: rotate(-38.31deg);" class="animable"></rect></g><path d="M440,112.71l-11.47,9.05-7.39-9.36a27.83,27.83,0,0,1,11.46-9.06Z" style="fill: rgb(244, 169, 66); transform-origin: 430.57px 112.55px;" id="eljaieox5w3f" class="animable"></path><path d="M430.47,120.25c-.18.14-2.07-1.91-4.21-4.59s-3.73-5-3.55-5.12,2.07,1.91,4.21,4.59S430.66,120.1,430.47,120.25Z" style="fill: rgb(38, 50, 56); transform-origin: 426.591px 115.396px;" id="elxndp8eer8v" class="animable"></path><path d="M432.66,118.52c-.19.14-2-2-4.16-4.83a32.87,32.87,0,0,1-3.57-5.28c.23-.2,2.14,2,4.25,4.76S432.85,118.38,432.66,118.52Z" style="fill: rgb(38, 50, 56); transform-origin: 428.803px 113.462px;" id="elz49mxve4usa" class="animable"></path><path d="M435.57,116.22c-.19.14-2.06-2.06-4.18-4.9s-3.7-5.25-3.55-5.37,2.11,2,4.23,4.86S435.75,116.08,435.57,116.22Z" style="fill: rgb(38, 50, 56); transform-origin: 431.707px 111.086px;" id="el8qf1tq813pb" class="animable"></path><path d="M438.22,114.07c-.18.14-2.06-1.94-4.18-4.65s-3.7-5-3.51-5.17,2.05,1.94,4.18,4.65S438.4,113.92,438.22,114.07Z" style="fill: rgb(38, 50, 56); transform-origin: 434.374px 109.159px;" id="elajjxwy42yru" class="animable"></path><g id="elbkva6gkvwvr"><rect x="519.9" y="118.3" width="7.09" height="11.07" style="fill: rgb(38, 50, 56); transform-origin: 523.445px 123.835px; transform: rotate(48.68deg);" class="animable"></rect></g><path d="M530,127.89l-9.65-11,9-7.87a27.87,27.87,0,0,1,9.65,11Z" style="fill: rgb(244, 169, 66); transform-origin: 529.675px 118.455px;" id="elj8rkcj7o1h" class="animable"></path><path d="M521.93,118.75c-.15-.17,1.8-2.17,4.37-4.45s4.77-4,4.93-3.81-1.8,2.17-4.37,4.45S522.09,118.93,521.93,118.75Z" style="fill: rgb(38, 50, 56); transform-origin: 526.581px 114.619px;" id="el6bpt1wcxzuc" class="animable"></path><path d="M523.77,120.84c-.15-.18,1.93-2.14,4.62-4.4a33.06,33.06,0,0,1,5.07-3.84c.22.21-1.84,2.23-4.53,4.49S523.92,121,523.77,120.84Z" style="fill: rgb(38, 50, 56); transform-origin: 528.619px 116.725px;" id="elkju2a34ugs8" class="animable"></path><path d="M526.22,123.63c-.15-.18,1.95-2.16,4.68-4.43s5.05-4,5.18-3.83-1.91,2.21-4.64,4.48S526.37,123.81,526.22,123.63Z" style="fill: rgb(38, 50, 56); transform-origin: 531.149px 119.501px;" id="elyq5xnoktow" class="animable"></path><path d="M528.51,126.16c-.15-.17,1.83-2.15,4.42-4.41s4.83-4,5-3.78-1.82,2.15-4.42,4.41S528.67,126.34,528.51,126.16Z" style="fill: rgb(38, 50, 56); transform-origin: 533.221px 122.062px;" id="el1oqv2xdopnm" class="animable"></path><g id="el56nf7aohqim"><rect x="477.11" y="96.31" width="8.4" height="13.1" style="fill: rgb(38, 50, 56); transform-origin: 481.31px 102.86px; transform: rotate(2.29061deg);" class="animable"></rect></g><path d="M490.11,100.6l-17.28-.72.58-14.11a33,33,0,0,1,17.28.72Z" style="fill: rgb(244, 169, 66); transform-origin: 481.76px 92.7746px;" id="el57x6p5i1s5i" class="animable"></path><path d="M490.9,86.55c.12.17-3.73,2.08-8.87,1.86s-8.84-2.35-8.71-2.5,3.81,1.51,8.74,1.66S490.82,86.3,490.9,86.55Z" style="fill: rgb(38, 50, 56); transform-origin: 482.11px 87.164px;" id="elqois637qves" class="animable"></path><path d="M478.54,100.08c-.24,0-.31-2.73-.17-6.07s.44-6,.67-6,.31,2.72.17,6.06S478.77,100.09,478.54,100.08Z" style="fill: rgb(38, 50, 56); transform-origin: 478.789px 94.045px;" id="el93d636y65y" class="animable"></path><path d="M481.82,100.3c-.23,0-.31-2.74-.17-6.1s.44-6.07.68-6.06.31,2.74.17,6.1S482.06,100.31,481.82,100.3Z" style="fill: rgb(38, 50, 56); transform-origin: 482.076px 94.22px;" id="elmizqx9u6f49" class="animable"></path><path d="M485.11,100.38c-.23,0-.31-2.74-.17-6.1s.44-6.07.68-6.06.31,2.74.17,6.1S485.35,100.39,485.11,100.38Z" style="fill: rgb(38, 50, 56); transform-origin: 485.366px 94.3px;" id="eltvje6q544na" class="animable"></path><path d="M487.85,100.49c-.23,0-.3-3-.15-6.59s.46-6.56.7-6.55.3,3,.15,6.59S488.08,100.5,487.85,100.49Z" style="fill: rgb(38, 50, 56); transform-origin: 488.126px 93.92px;" id="elxeh27kpitee" class="animable"></path><path d="M475.43,99.89c-.23,0-.3-3-.15-6.59s.46-6.56.7-6.55.3,3,.15,6.59S475.66,99.9,475.43,99.89Z" style="fill: rgb(38, 50, 56); transform-origin: 475.706px 93.32px;" id="elnz2q3ie75kc" class="animable"></path><g id="elrrkj02t9ct"><circle cx="477.64" cy="166.36" r="61.09" style="fill: rgb(244, 169, 66); transform-origin: 477.64px 166.36px; transform: rotate(-20.94deg);" class="animable"></circle></g><g id="elv2d1a5otqjk"><circle cx="477.66" cy="165.87" r="51.31" style="fill: rgb(255, 255, 255); transform-origin: 477.66px 165.87px; transform: rotate(-45deg);" class="animable"></circle></g><path d="M528.93,168a7.54,7.54,0,0,1,0-.83c0-.59,0-1.4-.07-2.44,0-.54,0-1.14,0-1.8s-.15-1.37-.23-2.15a38.66,38.66,0,0,0-.86-5.33,48.9,48.9,0,0,0-5.12-13.82,51.25,51.25,0,0,0-33.42-25.38,46.15,46.15,0,0,0-6.4-1c-1.1-.08-2.2-.24-3.32-.27l-3.37,0c-.57,0-1.14,0-1.71,0l-1.7.19c-1.14.14-2.3.23-3.45.41a53.08,53.08,0,0,0-6.87,1.72,51.79,51.79,0,0,0-6.75,2.64c-1.1.53-2.16,1.17-3.25,1.76a27.24,27.24,0,0,0-3.15,2,57.54,57.54,0,0,0-6,4.67,56.62,56.62,0,0,0-5.23,5.69,49.11,49.11,0,0,0-7.85,13.7,50.48,50.48,0,0,0-1.34,32.09,49.22,49.22,0,0,0,6.68,14.31,58.07,58.07,0,0,0,4.74,6.1,57.39,57.39,0,0,0,5.57,5.15,25.77,25.77,0,0,0,3,2.24c1,.68,2,1.4,3.08,2a53,53,0,0,0,6.52,3.19,54,54,0,0,0,6.7,2.28c1.13.28,2.27.46,3.4.7l1.68.33c.57.1,1.14.12,1.7.18l3.36.32c1.11.06,2.22,0,3.32,0a47.47,47.47,0,0,0,6.47-.48,51.26,51.26,0,0,0,35.41-22.52,48.82,48.82,0,0,0,6.25-13.34,36.53,36.53,0,0,0,1.3-5.24c.15-.77.32-1.47.41-2.13s.13-1.24.19-1.78q.16-1.56.27-2.43c.06-.54.12-.82.12-.82s0,.28,0,.83-.1,1.39-.18,2.44c0,.54-.09,1.14-.15,1.79s-.24,1.37-.38,2.15A36.09,36.09,0,0,1,527,180.5,48.59,48.59,0,0,1,520.79,194a51.54,51.54,0,0,1-35.71,23,48.65,48.65,0,0,1-6.55.5c-1.12,0-2.25.06-3.38,0l-3.41-.31c-.57-.06-1.15-.08-1.72-.18l-1.71-.33c-1.14-.24-2.3-.42-3.45-.7a54,54,0,0,1-6.81-2.3,52.48,52.48,0,0,1-6.62-3.23c-1.07-.63-2.09-1.36-3.14-2a26.58,26.58,0,0,1-3-2.27,56.72,56.72,0,0,1-5.66-5.22,57.74,57.74,0,0,1-4.83-6.2,49.94,49.94,0,0,1-6.8-14.54,51.2,51.2,0,0,1,1.36-32.62,50.08,50.08,0,0,1,8-13.92,58.49,58.49,0,0,1,5.32-5.78,60.41,60.41,0,0,1,6.07-4.73,29.14,29.14,0,0,1,3.21-2c1.11-.59,2.19-1.24,3.3-1.78a53.54,53.54,0,0,1,6.87-2.67,54.93,54.93,0,0,1,7-1.72c1.17-.19,2.35-.27,3.5-.41l1.74-.19c.57,0,1.15,0,1.73,0l3.42,0c1.13,0,2.25.19,3.36.28a47.46,47.46,0,0,1,6.49,1A51.6,51.6,0,0,1,523,141.42a48.37,48.37,0,0,1,5,14,37.1,37.1,0,0,1,.79,5.37c.07.79.17,1.51.2,2.17s0,1.26,0,1.8c0,1.05,0,1.86,0,2.45S528.93,168,528.93,168Z" style="fill: rgb(38, 50, 56); transform-origin: 477.488px 165.963px;" id="eltvguei37ga7" class="animable"></path><path d="M521.47,166.9c-4.68-.13-8.47-.51-8.47-.86s3.8-.69,8.48-.77,8.47.3,8.47.85S526.15,167,521.47,166.9Z" style="fill: rgb(38, 50, 56); transform-origin: 521.475px 166.089px;" id="elha1h56zhezl" class="animable"></path><path d="M508.09,197.4c-3.24-3.37-5.66-6.31-5.42-6.56s3.19,2.18,6.57,5.41,5.81,6.17,5.42,6.56S511.33,200.78,508.09,197.4Z" style="fill: rgb(38, 50, 56); transform-origin: 508.677px 196.837px;" id="el5676hbkfpom" class="animable"></path><path d="M477.13,209.69c.07-4.68.41-8.47.76-8.47s.73,3.78.86,8.46-.2,8.48-.75,8.48S477.06,214.37,477.13,209.69Z" style="fill: rgb(38, 50, 56); transform-origin: 477.95px 209.69px;" id="elbxtmoycnn3" class="animable"></path><path d="M446.47,196.65c3.34-3.28,6.26-5.74,6.5-5.49s-2.14,3.21-5.34,6.63-6.1,5.87-6.5,5.49S443.13,199.93,446.47,196.65Z" style="fill: rgb(38, 50, 56); transform-origin: 447.037px 197.231px;" id="ellzshkgqjds" class="animable"></path><path d="M433.84,165.82c4.69,0,8.48.32,8.49.67s-3.78.78-8.46,1-8.47-.12-8.49-.67S429.17,165.8,433.84,165.82Z" style="fill: rgb(38, 50, 56); transform-origin: 433.855px 166.689px;" id="eltmzt9z5ypf" class="animable"></path><path d="M446.55,135c3.31,3.31,5.8,6.19,5.56,6.44s-3.23-2.1-6.69-5.26-5.94-6-5.56-6.44S443.24,131.72,446.55,135Z" style="fill: rgb(38, 50, 56); transform-origin: 445.974px 135.573px;" id="elydlt6tp1k9g" class="animable"></path><path d="M477.24,122.06c0,4.68-.23,8.48-.58,8.49s-.82-3.77-1.05-8.45,0-8.47.58-8.49S477.21,117.38,477.24,122.06Z" style="fill: rgb(38, 50, 56); transform-origin: 476.381px 122.08px;" id="elv5ssd1yimth" class="animable"></path><path d="M508.17,134.42c-3.27,3.35-6.12,5.87-6.38,5.64s2.07-3.26,5.2-6.75,6-6,6.37-5.63S511.44,131.07,508.17,134.42Z" style="fill: rgb(38, 50, 56); transform-origin: 507.585px 133.859px;" id="elbaj0q8vws7q" class="animable"></path><path d="M493.09,139.23a176.54,176.54,0,0,1-1.62,22.5,28.07,28.07,0,0,1-2,7.9,10.57,10.57,0,0,1-5.58,5.67,6.59,6.59,0,0,1-7.42-1.77Z" style="fill: rgb(224, 224, 224); transform-origin: 484.78px 157.504px;" id="elt3wfzza0wjd" class="animable"></path><polygon points="476.72 161.78 496.65 131.19 483.94 166.14 478.12 167.62 476.72 161.78" style="fill: rgb(244, 169, 66); transform-origin: 486.685px 149.405px;" id="elq0jbzqj8cwh" class="animable"></polygon><g id="eldzrgkx7sb3l"><g style="opacity: 0.4; transform-origin: 489.075px 148.665px;" class="animable"><polygon points="496.65 131.19 481.5 162.67 483.94 166.14 496.65 131.19" id="elyo458ooqvp" class="animable" style="transform-origin: 489.075px 148.665px;"></polygon></g></g><path d="M484.12,167.87a6,6,0,1,1-5.75-6.25A6,6,0,0,1,484.12,167.87Z" style="fill: rgb(250, 250, 250); transform-origin: 478.125px 167.615px;" id="elz5383osku19" class="animable"></path><path d="M484.12,167.87c-.08,0-.06-.54-.29-1.44a6,6,0,0,0-2.07-3.2,5.74,5.74,0,0,0-5.33-1A5.62,5.62,0,0,0,476,172.8a5.73,5.73,0,0,0,5.39-.51,6,6,0,0,0,2.33-3c.3-.88.33-1.42.41-1.41a3,3,0,0,1-.09,1.5,6,6,0,0,1-2.31,3.41,6.26,6.26,0,0,1-6,.74,6.36,6.36,0,0,1,.49-12,6.29,6.29,0,0,1,5.95,1.24,6,6,0,0,1,2,3.59A3.13,3.13,0,0,1,484.12,167.87Z" style="fill: rgb(38, 50, 56); transform-origin: 477.974px 167.615px;" id="elx834j4wqss" class="animable"></path><path d="M482.58,167.8a4.46,4.46,0,1,1-4.27-4.65A4.46,4.46,0,0,1,482.58,167.8Z" style="fill: rgb(69, 90, 100); transform-origin: 478.124px 167.606px;" id="elz1dckdz49lf" class="animable"></path><path d="M513.47,183.05l-3.8,65.66a3.69,3.69,0,0,0,4.5,3.82l67-15.14a3.7,3.7,0,0,0,1.49-6.49l-63.15-50.52A3.69,3.69,0,0,0,513.47,183.05Z" style="fill: rgb(69, 90, 100); transform-origin: 546.853px 216.077px;" id="el9vllgeeqlq" class="animable"></path></g><g id="freepik--character-1--inject-97" class="animable" style="transform-origin: 321.998px 253.46px;"><path d="M167.33,310.91,205,359.52a2.87,2.87,0,0,0,4.44.12L248.82,314a2.87,2.87,0,0,0-2.06-4.74l-77-2.95A2.86,2.86,0,0,0,167.33,310.91Z" style="fill: rgb(244, 169, 66); transform-origin: 208.125px 333.469px;" id="elcl413udfwub" class="animable"></path><path d="M426.51,391.09a111.54,111.54,0,0,1-91.46,47.73H237.59v30.63h97.46a142.11,142.11,0,0,0,114.27-57.64Z" style="fill: rgb(244, 169, 66); transform-origin: 343.455px 430.27px;" id="el2ltvd3nybyk" class="animable"></path><path d="M441.06,232.48a141.92,141.92,0,0,0-106-47.51c-78.43,0-142.24,63.81-142.24,142.24h30.63A111.56,111.56,0,0,1,417.89,252.5Z" style="fill: rgb(244, 169, 66); transform-origin: 316.94px 256.09px;" id="el7kl256zyeap" class="animable"></path><path d="M450.28,243.92l-24,19.12a111.36,111.36,0,0,1,7.35,116.39l23.87,20a141.93,141.93,0,0,0-7.25-155.53Z" style="fill: rgb(244, 169, 66); transform-origin: 451.77px 321.665px;" id="el3pl2b9m4who" class="animable"></path><g id="el7euvw7vngcu"><g style="opacity: 0.3; transform-origin: 210.325px 304.295px;" class="animable"><polygon points="194.21 307.23 225.03 308.35 226.44 301.46 195.51 300.24 194.21 307.23" id="elst0glviga9" class="animable" style="transform-origin: 210.325px 304.295px;"></polygon></g></g><g id="el0f75euse73a"><g style="opacity: 0.3; transform-origin: 331.885px 201.78px;" class="animable"><polygon points="309.33 218.59 314.31 217.54 324.02 191.3 354.44 189.59 325.96 184.97 318.59 185.92 309.33 218.59" id="elmaj8jturfu" class="animable" style="transform-origin: 331.885px 201.78px;"></polygon></g></g><path d="M316.11,123.92s-1.06.46-1.23-1,2.79-4.37,3.74-5.31,2.3-.74,3.5-.47,6.11.76,7.74,1.81,4.13,6.29,4.65,6.54,15.84,1,15.84,1l-.66,12.56s-15-2.87-18-4.73-2.59-2.6-3.43-4.34-1.76-3.58-1.76-3.58l-1.41-.24-2.25,1.25s-.27,3.19-2.5,3.1l-1.1-.57s-.73.84-1.56-.46S317,128,317,128s-.87,1.08-1.82-.26S316.11,123.92,316.11,123.92Z" style="fill: rgb(174, 116, 97); transform-origin: 332.611px 127.983px;" id="el9cdc222tifk" class="animable"></path><path d="M332.62,129.25s-.05,0-.16.06a3,3,0,0,1-.5,0,3.55,3.55,0,0,1-1.81-.51,4.77,4.77,0,0,1-1.91-2.12,9.34,9.34,0,0,1-.79-3.52l.24.15a9.12,9.12,0,0,1-6,.55,2.37,2.37,0,0,1-1.16-.54.59.59,0,0,1,0-.74,1.22,1.22,0,0,1,.54-.35c1.38-.56,2.64-1,3.72-1.32s2-.55,2.57-.69a4.76,4.76,0,0,1,1-.17,5.14,5.14,0,0,1-.92.3c-.6.18-1.47.44-2.53.8s-2.31.82-3.68,1.39a1,1,0,0,0-.4.24.24.24,0,0,0,0,.32,2.07,2.07,0,0,0,1,.42,9,9,0,0,0,5.73-.52l.23-.11v.26a9.15,9.15,0,0,0,.72,3.41,4.72,4.72,0,0,0,1.75,2.06,3.79,3.79,0,0,0,1.7.58C332.38,129.27,332.62,129.23,332.62,129.25Z" style="fill: rgb(111, 68, 57); transform-origin: 326.51px 124.685px;" id="elnb7el2sgvem" class="animable"></path><path d="M324.86,120.64a2.13,2.13,0,0,1-1.44.28c-.46,0-1-.08-1.57,0a2.13,2.13,0,0,0-1.57.79,8.27,8.27,0,0,1-2.88,2.07,3.48,3.48,0,0,1-1.42.39s.52-.21,1.31-.62a9.45,9.45,0,0,0,2.74-2.09,2.67,2.67,0,0,1,.84-.65,2.43,2.43,0,0,1,1-.22,11.52,11.52,0,0,1,1.6.12A6.93,6.93,0,0,0,324.86,120.64Z" style="fill: rgb(111, 68, 57); transform-origin: 320.42px 122.38px;" id="eldf7jgr3jygb" class="animable"></path><path d="M321.7,124a5.83,5.83,0,0,1-1.95,2.64,6,6,0,0,1-2.91,1.53,25.63,25.63,0,0,0,2.68-1.8A25,25,0,0,0,321.7,124Z" style="fill: rgb(111, 68, 57); transform-origin: 319.27px 126.085px;" id="elfdeog7uo32q" class="animable"></path><path d="M322.26,125.91a5.56,5.56,0,0,1-3.05,4.17c-.06-.09.91-.76,1.75-1.92S322.15,125.88,322.26,125.91Z" style="fill: rgb(111, 68, 57); transform-origin: 320.734px 127.995px;" id="elq896juc2j6i" class="animable"></path><polygon points="368.54 99.44 354.83 124.19 333.54 123.82 331.94 136.6 353.91 141.99 362.95 132.06 368.54 99.44" style="fill: rgb(224, 224, 224); transform-origin: 350.24px 120.715px;" id="elb2qecxrrns" class="animable"></polygon><path d="M356.54,128.39c-.11,0-.24-1-.72-2.16s-1.08-2-1-2a5.25,5.25,0,0,1,1.71,4.2Z" style="fill: rgb(38, 50, 56); transform-origin: 355.676px 126.33px;" id="elf5inbnm046t" class="animable"></path><path d="M373.76,55.64a3.57,3.57,0,0,1-1.64-6.91,3.72,3.72,0,0,1,3.12-6.33,4.45,4.45,0,0,1,6.64-3.76A5,5,0,0,1,388,38.4a3.56,3.56,0,0,1,3.25,6" style="fill: rgb(38, 50, 56); transform-origin: 381.01px 46.5697px;" id="elhrioh2muwj4" class="animable"></path><path d="M388.87,41.91l-.79,0a15.14,15.14,0,0,0-14.83,14.22c-.45,7.34-.85,15.44-.73,19.37.26,8.13,8.42,9.24,8.42,9.24l-.5,9.78,1,7.46,18.76-8.45,1.06-35.47C401.79,49.62,397.34,42.24,388.87,41.91Z" style="fill: rgb(174, 116, 97); transform-origin: 386.9px 71.945px;" id="elumaclrdqezl" class="animable"></path><path d="M380.87,84.75a19.75,19.75,0,0,0,10.6-3.33s-2.53,6.3-10.65,5.72Z" style="fill: rgb(111, 68, 57); transform-origin: 386.145px 84.2989px;" id="ellr4ors18eyj" class="animable"></path><path d="M376.2,64.49a1.15,1.15,0,0,0,1.14,1.15,1.1,1.1,0,0,0,1.18-1.07,1.18,1.18,0,0,0-1.15-1.15A1.11,1.11,0,0,0,376.2,64.49Z" style="fill: rgb(38, 50, 56); transform-origin: 377.36px 64.5306px;" id="el37vl8y5kdoe" class="animable"></path><path d="M375.07,60.1c.15.15,1-.52,2.27-.54s2.17.59,2.31.43-.09-.34-.5-.62a3.15,3.15,0,0,0-1.85-.54,3.07,3.07,0,0,0-1.8.62C375.12,59.76,375,60,375.07,60.1Z" style="fill: rgb(38, 50, 56); transform-origin: 377.371px 59.4754px;" id="ellcu21rygmzq" class="animable"></path><path d="M387.57,64.49a1.15,1.15,0,0,0,1.14,1.15,1.1,1.1,0,0,0,1.18-1.07,1.17,1.17,0,0,0-1.14-1.15A1.12,1.12,0,0,0,387.57,64.49Z" style="fill: rgb(38, 50, 56); transform-origin: 388.73px 64.5306px;" id="elm3e4vbicqu" class="animable"></path><path d="M387.36,60.09c.15.15,1-.52,2.26-.54s2.18.59,2.32.43-.09-.34-.5-.62a3.18,3.18,0,0,0-1.85-.53,3.07,3.07,0,0,0-1.8.62C387.41,59.75,387.29,60,387.36,60.09Z" style="fill: rgb(38, 50, 56); transform-origin: 389.661px 59.4703px;" id="elku6dvo4yfp" class="animable"></path><path d="M383,69.45a8.28,8.28,0,0,0-2-.33c-.32,0-.63-.08-.68-.3a1.6,1.6,0,0,1,.19-.95c.29-.78.58-1.59.9-2.45a41.68,41.68,0,0,0,2-6.39,41.54,41.54,0,0,0-2.5,6.22L380,67.71a1.9,1.9,0,0,0-.14,1.26.81.81,0,0,0,.53.45,2.36,2.36,0,0,0,.55.07A8.2,8.2,0,0,0,383,69.45Z" style="fill: rgb(38, 50, 56); transform-origin: 381.61px 64.2832px;" id="ellsdkgm0dppe" class="animable"></path><path d="M386.18,55.31c.17.31,1.24-.05,2.56-.12s2.43.13,2.54-.2c.05-.16-.19-.44-.67-.69a4,4,0,0,0-2-.37,3.84,3.84,0,0,0-1.9.62C386.3,54.85,386.11,55.16,386.18,55.31Z" style="fill: rgb(38, 50, 56); transform-origin: 388.726px 54.6766px;" id="el36pwia8uw8m" class="animable"></path><path d="M374.91,55c.27.28,1.3,0,2.54-.08s2.29.15,2.53-.15c.1-.15-.07-.43-.54-.69a4,4,0,0,0-2.07-.42,3.89,3.89,0,0,0-2,.61C374.93,54.52,374.79,54.81,374.91,55Z" style="fill: rgb(38, 50, 56); transform-origin: 377.438px 54.3863px;" id="el5387czum1i" class="animable"></path><path d="M374,52.41s2-5.14,4.48-6.37c2.94-1.5,4.28,1.74,7.1.89s5.63-2.28,8.57-.14c3.21,2.33,1.76,4,2,7.65,1.08,14.61,3.83,18.7,4.45,11.79.07-.76,2.16-1.4,2.4-4.59.33-4.15.39-9.17-.59-12.09-.83-2.46-2.27-4.14-4.84-6-4.05-2.89-9.53-2.85-13.25-2.4S373.49,46,374,52.41Z" style="fill: rgb(38, 50, 56); transform-origin: 388.596px 55.212px;" id="elid2wi5tpp8" class="animable"></path><path d="M400.07,66a2.2,2.2,0,0,1,2.34-2.17c1.52.11,3.23.94,3.19,4.08-.07,5.56-5.64,4.34-5.65,4.18S400,68.35,400.07,66Z" style="fill: rgb(174, 116, 97); transform-origin: 402.775px 68.0693px;" id="elai3drjk9id9" class="animable"></path><path d="M401.19,70s.09.07.25.15a1,1,0,0,0,.73,0,2.38,2.38,0,0,0,1.14-2.13,3.11,3.11,0,0,0-.26-1.39,1.12,1.12,0,0,0-.72-.76.49.49,0,0,0-.57.26c-.08.16-.05.27-.08.28s-.11-.1-.07-.33a.65.65,0,0,1,.23-.34.74.74,0,0,1,.54-.14,1.41,1.41,0,0,1,1,.88,3.24,3.24,0,0,1,.31,1.55,2.53,2.53,0,0,1-1.44,2.39,1.09,1.09,0,0,1-.89-.16C401.19,70.17,401.17,70,401.19,70Z" style="fill: rgb(111, 68, 57); transform-origin: 402.439px 68.0237px;" id="elsevwl0czuv" class="animable"></path><path d="M399.75,55.25a5.18,5.18,0,0,1-2.33,1.13,1.82,1.82,0,0,1-2-1.23c-.07-.39,0-.84-.24-1.14s-.87-.22-1.34-.17c-1.61.21-3.53-1.54-4-3.11a1.45,1.45,0,0,1-1.93.44A5.21,5.21,0,0,1,386.53,50a2.3,2.3,0,0,0-1.93-.92,5.24,5.24,0,0,1-1.2.29c-.73-.05-1.11-.9-1.23-1.62s-.23-1.57-.85-1.95a3,3,0,0,0-2,0c-.67.12-1.54,0-1.73-.68a1.28,1.28,0,0,1,.23-1,3.61,3.61,0,0,1,4.22-1.45A4.88,4.88,0,0,1,391,41.53a5,5,0,0,1,8,1.66,3.59,3.59,0,0,1,4.15,5.14A3.4,3.4,0,0,1,405,51a2,2,0,0,1-2.17,2,2,2,0,0,1-.73,2.62,2.07,2.07,0,0,1-2.67-.57" style="fill: rgb(38, 50, 56); transform-origin: 391.284px 47.7273px;" id="el2wr7fuegzyu" class="animable"></path><path d="M381.67,44.3a.82.82,0,0,0,0,.1,2.16,2.16,0,0,0,0,.29,3.25,3.25,0,0,0,.42,1.07,4,4,0,0,0,1.26,1.29,3.72,3.72,0,0,0,2.29.6l-.1-.12a2,2,0,0,0,.15,1.54,5.64,5.64,0,0,0,1,1.34,3.83,3.83,0,0,0,.64.63,1.86,1.86,0,0,0,.89.31,2,2,0,0,0,1.77-.68l-.21-.05a4.2,4.2,0,0,0,1.83,2.85,3,3,0,0,0,1.84.56,5.59,5.59,0,0,0,1.79-.43l-.15-.06a4.26,4.26,0,0,0,1.35,1.69,2.28,2.28,0,0,0,1.94.49,3.07,3.07,0,0,0,2.32-2.44l-.13.06a2.88,2.88,0,0,0,1.92.24,3.12,3.12,0,0,0,1.32-.62,2.69,2.69,0,0,0,.61-.69,1,1,0,0,0,.13-.29,3.39,3.39,0,0,1-.8.91,3.08,3.08,0,0,1-1.29.56,2.75,2.75,0,0,1-1.81-.26l-.1-.06,0,.12a2.91,2.91,0,0,1-2.19,2.27,2.14,2.14,0,0,1-1.77-.47,4.19,4.19,0,0,1-1.27-1.6l0-.11-.11,0a5,5,0,0,1-1.71.41,2.78,2.78,0,0,1-1.7-.52A4,4,0,0,1,390,50.58l0-.26-.17.21a1.81,1.81,0,0,1-1.57.59,1.76,1.76,0,0,1-.79-.26,4.76,4.76,0,0,1-.6-.59,5.63,5.63,0,0,1-.95-1.29,1.8,1.8,0,0,1-.15-1.39l0-.13h-.14a3.6,3.6,0,0,1-2.19-.55,3.84,3.84,0,0,1-1.25-1.22A4.52,4.52,0,0,1,381.67,44.3Z" style="fill: rgb(69, 90, 100); transform-origin: 393.108px 50.0343px;" id="el77k7zt2usr7" class="animable"></path><path d="M383.36,73.72c0-.21,1.4,0,2.6-.94s1.33-2.48,1.52-2.45.2.38.1,1a3.45,3.45,0,0,1-1.19,2.06,3,3,0,0,1-2.16.7C383.64,74,383.33,73.81,383.36,73.72Z" style="fill: rgb(38, 50, 56); transform-origin: 385.5px 72.214px;" id="eltqtsg74mxga" class="animable"></path><path d="M348.57,148.86l5.75-8.09L363.17,114c1.81-4.66,3.37-10.57,5.57-15a10.35,10.35,0,0,1,5.09-4.83l3.76-1.67L379.83,89c-1.29,8.12,10.08,9.12,22.17-1,0,0,4,2.7,9.63,7.37,2.46,2,4.7,4.28,5.63,7.66,1.69,6.12-5.58,24.25-13.49,41.3-2.37,5.1-10.66,24.21-10.66,24.21l-2.77.51s-33.2-6.88-38.35-11.27A10.46,10.46,0,0,1,348.57,148.86Z" style="fill: rgb(224, 224, 224); transform-origin: 383.008px 128.525px;" id="elgbvqn0ynsnw" class="animable"></path><path d="M349.6,145.49a2.39,2.39,0,0,1,.3-.35l.91-1,3.42-3.5,0,0,2.33-7.19c.92-2.72,1.84-5.73,2.78-8.92,1.8-6.26,3.52-11.91,5.1-15.89.76-2,1.48-3.57,2-4.65l.62-1.23a1.93,1.93,0,0,1,.23-.41,2.78,2.78,0,0,1-.17.44c-.14.32-.33.74-.55,1.26-.47,1.1-1.15,2.68-1.89,4.68-1.51,4-3.18,9.64-5,15.9-.93,3.19-1.87,6.21-2.8,8.92s-1.73,5.14-2.42,7.17v0l0,0-3.49,3.41-1,.92A2.39,2.39,0,0,1,349.6,145.49Z" style="fill: rgb(38, 50, 56); transform-origin: 358.445px 123.92px;" id="elsih3wvt6bdq" class="animable"></path><polygon points="382.55 100.92 370.13 151.79 357.25 158.2 357.25 145.76 379.55 99.81 382.55 100.92" style="fill: rgb(244, 169, 66); transform-origin: 369.9px 129.005px;" id="eldj0iuuvqkdt" class="animable"></polygon><g id="elwrejmbfuhxe"><g style="opacity: 0.3; transform-origin: 378.205px 153.767px;" class="animable"><path d="M358.81,147.21a47.33,47.33,0,0,1,9.79,5.54,60.74,60.74,0,0,0,9.67,5.78,18.5,18.5,0,0,0,11,1.54,11.08,11.08,0,0,0,8.33-6.84Z" id="el1ewci2ltjfh" class="animable" style="transform-origin: 378.205px 153.767px;"></path></g></g><polygon points="377.59 92.38 380.76 87.53 382 94.18 385.16 90.61 400.85 83.27 403.57 89.1 386.24 99.35 381.44 98.99 377.93 94.83 377.59 92.38" style="fill: rgb(224, 224, 224); transform-origin: 390.58px 91.31px;" id="elgx9npef6di" class="animable"></polygon><path d="M377.59,92.38a4.39,4.39,0,0,1,.23,1c.16.76.34,1.61.53,2.56l-.31,0,.86-1.57L380.22,92l.17-.3.11.32c.28.8.42,1.46.55,1.93a2.91,2.91,0,0,1,.16.74,2,2,0,0,1-.33-.69c-.18-.45-.38-1.11-.67-1.86h.28l-1.28,2.37c-.31.54-.6,1.06-.87,1.55l-.23.4L378,96A14.49,14.49,0,0,1,377.59,92.38Z" style="fill: rgb(38, 50, 56); transform-origin: 379.399px 94.08px;" id="el0o6h1bw1n99g" class="animable"></path><path d="M382.86,94.84l-2-.25c-.54.61-1.87,1.86-2.41,2.47v.06c.23,1.33.47,2.66.71,4a13.35,13.35,0,0,1,3.33.27l1.83-3.22Z" style="fill: rgb(244, 169, 66); transform-origin: 381.385px 97.99px;" id="elzk1w6tjx2k" class="animable"></path><polygon points="383.02 95.25 385.24 94.16 385.99 98.04 384.14 98.2 383.02 95.25" style="fill: rgb(244, 169, 66); transform-origin: 384.505px 96.18px;" id="el8zke4eqttrb" class="animable"></polygon><g id="el7ycfcsslgni"><g style="opacity: 0.3; transform-origin: 393.1px 95.985px;" class="animable"><polygon points="384.93 92.59 384.93 101.38 401.27 90.59 386.07 99.44 384.93 92.59" id="elt1fc347wlt" class="animable" style="transform-origin: 393.1px 95.985px;"></polygon></g></g><path d="M403.57,89.1a7.23,7.23,0,0,1-.95.72c-.63.43-1.55,1-2.73,1.75-2.33,1.43-5.68,3.19-9.29,5.26-1.53.89-3,1.78-4.26,2.66l-.22.14,0-.25c-.5-2.68-.93-5-1.25-6.77l.18.06-1.72,1.61a3.59,3.59,0,0,1-.65.54,7.29,7.29,0,0,1,.56-.63l1.66-1.68.14-.14,0,.2c.36,1.75.83,4.07,1.37,6.74l-.26-.1c1.29-.9,2.74-1.8,4.27-2.69,3.62-2.08,7-3.8,9.34-5.17,1.19-.68,2.13-1.25,2.79-1.65A7,7,0,0,1,403.57,89.1Z" style="fill: rgb(38, 50, 56); transform-origin: 393.125px 94.365px;" id="elx8ifzvnd1o9" class="animable"></path><polygon points="380.89 95.34 379.98 93.09 378.46 95.87 379.11 96.88 380.89 95.34" style="fill: rgb(244, 169, 66); transform-origin: 379.675px 94.985px;" id="el6w9fwo4m0rj" class="animable"></polygon><path d="M383.4,95c.07.07-1,1.34-2.2,3s-2,3.14-2.09,3.09A16.9,16.9,0,0,1,383.4,95Z" style="fill: rgb(38, 50, 56); transform-origin: 381.257px 98.0456px;" id="el4tvzdkff44d" class="animable"></path><path d="M382.29,101.45a5.41,5.41,0,0,1-1.69-.17,5.14,5.14,0,0,1-1.66-.4,3.75,3.75,0,0,1,1.72.05A3.45,3.45,0,0,1,382.29,101.45Z" style="fill: rgb(38, 50, 56); transform-origin: 380.615px 101.131px;" id="ela5bh9nwo3x7" class="animable"></path><path d="M302.65,143.35h0l-10.34-29.22a1.13,1.13,0,0,1,.83-1.44L317,106.45a1.19,1.19,0,0,1,1.38.79l10.87,32.92L363,162.3,361.36,164l-8.62-2.1Z" style="fill: rgb(69, 90, 100); transform-origin: 327.629px 135.212px;" id="ela9t0s7x2ptv" class="animable"></path><path d="M361.36,164s-.06,0-.17-.09l-.49-.31-1.87-1.23L352,157.77l-22.5-15.14-1.78-1.21,0,0,0-.06c-3.18-9.58-6-18.16-8.08-24.37-1-3.08-1.82-5.58-2.39-7.33-.26-.84-.48-1.51-.63-2l-.15-.52c0-.12-.05-.18,0-.18a1.78,1.78,0,0,1,.07.17l.19.51c.17.47.4,1.13.69,2,.6,1.74,1.45,4.22,2.49,7.29L328,141.22l-.07-.1,1.78,1.21,22.44,15.23,6.77,4.65,1.84,1.28.47.34Z" style="fill: rgb(38, 50, 56); transform-origin: 338.904px 135.48px;" id="elg2kjeigzdz" class="animable"></path><path d="M306.77,142.73c0-.1,4.69-.4,10.49-.68s10.5-.41,10.51-.31-4.69.4-10.49.67S306.78,142.83,306.77,142.73Z" style="fill: rgb(38, 50, 56); transform-origin: 317.27px 142.234px;" id="elmi9kwrsd9pk" class="animable"></path><path d="M310.58,126.05c.42,1.32.18,2.58-.52,2.8s-1.62-.68-2-2-.18-2.58.52-2.8S310.16,124.72,310.58,126.05Z" style="fill: rgb(224, 224, 224); transform-origin: 309.329px 126.45px;" id="elz7sw0ihge6c" class="animable"></path><path d="M336.3,126.21s-.89.44-1-1c-.13-1.26,2.9-3.13,4-3.83s3.52-.22,4.74-.06c1.65.21,5.49,1.93,6.71,3.39s2.09,5.3,2.54,5.66S369,136.75,369,136.75l-3.47,12.09s-14-6.18-16.49-8.67-1.94-3.12-2.37-5-.9-3.88-.9-3.88l-1.32-.55-2.48.71a5.48,5.48,0,0,1-1,1.67,1.94,1.94,0,0,1-2.91,0h0a1.5,1.5,0,0,1-1.87-1,3,3,0,0,1-.07-1.47s-1.13.22-1.14-1.19A6.64,6.64,0,0,1,336.3,126.21Z" style="fill: rgb(174, 116, 97); transform-origin: 351.99px 134.925px;" id="elrrezzzyg6c" class="animable"></path><path d="M344.24,127.81c0,.06-.51,0-1.29.21a6.37,6.37,0,0,0-2.76,1.38,6.2,6.2,0,0,0-1.71,2.56c-.27.75-.31,1.26-.37,1.26a2.68,2.68,0,0,1,.13-1.34,5.68,5.68,0,0,1,4.66-4.11A2.7,2.7,0,0,1,344.24,127.81Z" style="fill: rgb(111, 68, 57); transform-origin: 341.158px 130.462px;" id="eletdbb4vcisq" class="animable"></path><path d="M343.1,125.22c0,.06-.55,0-1.39.16a6.34,6.34,0,0,0-2.88,1.65,14,14,0,0,0-2,2.71,6.69,6.69,0,0,1-.79,1.18,4.68,4.68,0,0,1,.57-1.31,11.3,11.3,0,0,1,2-2.84,5.88,5.88,0,0,1,3.08-1.64A2.35,2.35,0,0,1,343.1,125.22Z" style="fill: rgb(111, 68, 57); transform-origin: 339.57px 127.991px;" id="elpv0wq784hrd" class="animable"></path><path d="M342.88,122.38c0,.06-.48,0-1.21.13a6.68,6.68,0,0,0-2.63,1.18,16.08,16.08,0,0,0-2.15,2,4.76,4.76,0,0,1-.89.87,4.44,4.44,0,0,1,.7-1,10.91,10.91,0,0,1,2.13-2.14,5.85,5.85,0,0,1,2.8-1.14A2.15,2.15,0,0,1,342.88,122.38Z" style="fill: rgb(111, 68, 57); transform-origin: 339.44px 124.395px;" id="el6ujorqo0jyk" class="animable"></path><path d="M408,94.93c4.29.84,7.08,4.6,7.95,9.32,1.24,6.68-14.08,38.28-16.94,45.18a14.05,14.05,0,0,1-13.54,8.77c-3.88-.09-31-12.83-31-12.83l4-13.79,24.14,7.17,9.56-26.91" style="fill: rgb(224, 224, 224); transform-origin: 385.246px 126.57px;" id="eleoic4gpdzga" class="animable"></path><path d="M392.12,111.84s0,.16-.15.48l-.48,1.4-1.87,5.36c-1.64,4.67-4,11.4-6.94,19.71l0,.12-.12,0-24.15-7.14.21-.11c-1.27,4.41-2.6,9-4,13.79l-.09-.21c6.34,2.95,13.13,6,20.2,9,2.87,1.19,5.72,2.38,8.6,3.3l1.08.31c.36.09.71.12,1.07.19a15,15,0,0,0,2.22-.13,14.6,14.6,0,0,0,4.21-1.19,13.24,13.24,0,0,0,6.16-5.68c.67-1.22,1.17-2.54,1.74-3.8l1.68-3.73c4.46-9.83,8.42-18.72,11.25-26.37a58.29,58.29,0,0,0,3.1-10.53,8.49,8.49,0,0,0,.05-2.3,15.57,15.57,0,0,0-.52-2.09,13.38,13.38,0,0,0-1.65-3.39,9.34,9.34,0,0,0-4-3.31,8.8,8.8,0,0,0-1.28-.45l-.45-.12.46.09a7.41,7.41,0,0,1,1.3.42,9.28,9.28,0,0,1,4,3.29,13.57,13.57,0,0,1,1.7,3.41,16.25,16.25,0,0,1,.55,2.11,8.59,8.59,0,0,1-.05,2.37A57.32,57.32,0,0,1,413,117.21c-2.81,7.67-6.74,16.58-11.19,26.41l-1.67,3.74c-.57,1.25-1.06,2.57-1.75,3.82A13.54,13.54,0,0,1,392,157a15.13,15.13,0,0,1-4.31,1.23,14.27,14.27,0,0,1-2.27.12,11.05,11.05,0,0,1-1.15-.2l-1.1-.31c-2.91-.93-5.75-2.11-8.63-3.31-7.08-3-13.87-6.07-20.21-9l-.13-.07,0-.14c1.38-4.77,2.72-9.37,4-13.78l.05-.16.16.05,24.12,7.2-.16.08L389.49,119c.83-2.31,1.48-4.1,1.93-5.34l.51-1.38C392.05,112,392.12,111.84,392.12,111.84Z" style="fill: rgb(38, 50, 56); transform-origin: 385.13px 126.653px;" id="elfdu9lu9pc1v" class="animable"></path><path d="M386.41,148.86c-.11,0-.48-2.4-1.56-5.19s-2.39-4.86-2.29-4.92a6.61,6.61,0,0,1,.93,1.3,22.37,22.37,0,0,1,1.7,3.49,22.8,22.8,0,0,1,1.05,3.73A5.82,5.82,0,0,1,386.41,148.86Z" style="fill: rgb(38, 50, 56); transform-origin: 384.484px 143.805px;" id="elnxxj8vpmeaf" class="animable"></path><path d="M406.34,95c0,.06-.89.35-2.25,1a21.26,21.26,0,0,0-2.31,1.37,21.93,21.93,0,0,0-2.52,2.09,22.49,22.49,0,0,0-2.15,2.48,20.58,20.58,0,0,0-1.42,2.26c-.72,1.35-1,2.26-1.1,2.23a2.49,2.49,0,0,1,.18-.65,12.85,12.85,0,0,1,.69-1.69,17.84,17.84,0,0,1,1.39-2.35A18.72,18.72,0,0,1,399,99.23a19.89,19.89,0,0,1,2.59-2.1A18.72,18.72,0,0,1,404,95.8a14,14,0,0,1,1.71-.66A2.14,2.14,0,0,1,406.34,95Z" style="fill: rgb(38, 50, 56); transform-origin: 400.465px 100.715px;" id="el03pldoxb3q9" class="animable"></path><path d="M271.13,222.64l-17-12.11s37.14-53.8,40.91-58c2.86-3.15,9.1-8,16.43-7.7s20.87,4.94,25.77,6.29,47.62,13.49,53.11,17.88c0,0-3.83,16.55-8.32,20.42-3.52,3-16,3.56-24,1.35s-47-20.11-47-20.11Z" style="fill: rgb(38, 50, 56); transform-origin: 322.24px 183.728px;" id="el2ghwpen0luw" class="animable"></path><path d="M281,239.69,301.46,247l17.47-62.44,37.21,5.62-32.69-30.69s-17.8,5.3-20.69,5.78c-3.72.63-8.67,8.18-10.29,16.14C291.07,188.36,281,239.69,281,239.69Z" style="fill: rgb(38, 50, 56); transform-origin: 318.57px 203.245px;" id="eldm7xno1wan6" class="animable"></path><path d="M344.23,188.87c-.05.08-9.65-5.39-21.44-12.22s-21.31-12.43-21.26-12.52,9.65,5.38,21.44,12.21S344.28,188.78,344.23,188.87Z" style="fill: rgb(69, 90, 100); transform-origin: 322.88px 176.5px;" id="el579f6xece44" class="animable"></path><g id="elpr5hmuz1wo"><g style="opacity: 0.3; transform-origin: 288.92px 190.465px;" class="animable"><path d="M282.33,208.07s6.82-31.43,13.18-35.21c0,0-6.11,16.31-6.72,26.8Z" id="el7c9nf3g4303" class="animable" style="transform-origin: 288.92px 190.465px;"></path></g></g><path d="M305.56,166.48a11.09,11.09,0,0,0-2,.18,10.14,10.14,0,0,0-4.81,2.55,17.3,17.3,0,0,0-4.29,6.88,86.78,86.78,0,0,0-2.84,9.68c-1.59,7-2.51,13.43-3.4,18-.42,2.32-.82,4.18-1.1,5.47-.14.61-.26,1.1-.35,1.47a3.15,3.15,0,0,1-.14.51,2.14,2.14,0,0,1,.07-.53c.07-.37.17-.86.28-1.48.24-1.3.6-3.16,1-5.48.82-4.63,1.71-11.07,3.3-18.08a84.48,84.48,0,0,1,2.88-9.71,17.24,17.24,0,0,1,4.43-7,10,10,0,0,1,5-2.5A5.53,5.53,0,0,1,305.56,166.48Z" style="fill: rgb(69, 90, 100); transform-origin: 296.095px 188.795px;" id="elfxsjx30okpp" class="animable"></path><path d="M286.55,227.44l-4.41,19.76s-21.4,3.45-22.35,7.08l38.53,7.62L304.6,231Z" style="fill: rgb(38, 50, 56); transform-origin: 282.195px 244.67px;" id="elbczb8hr0umv" class="animable"></path><path d="M294.38,247.88a1.51,1.51,0,0,1-1.25,2.75c-1.92-.94-.37-3.78,1.38-2.67" style="fill: rgb(224, 224, 224); transform-origin: 293.755px 249.236px;" id="elo37wqxl44w" class="animable"></path><path d="M298.32,261.9l.51-3.15-37.13-6.12s-1.86.41-1.91,1.65Z" style="fill: rgb(69, 90, 100); transform-origin: 279.31px 257.265px;" id="elyrlb3i6udc9" class="animable"></path><path d="M281.55,246.88c0,.19.89.46,1.7,1.24s1.14,1.68,1.33,1.64C285.36,248.92,282.34,246.06,281.55,246.88Z" style="fill: rgb(255, 255, 255); transform-origin: 283.129px 248.248px;" id="elxj0j9m3f3na" class="animable"></path><path d="M277.18,247.75c-.08.17.67.65,1.15,1.58s.5,1.8.69,1.82C280,250.63,278.17,247.19,277.18,247.75Z" style="fill: rgb(255, 255, 255); transform-origin: 278.237px 249.419px;" id="elc71lfc2s4eh" class="animable"></path><path d="M273.93,252.13c.94-.14,0-3.82-.86-3.51C273.15,248.72,274,252,273.93,252.13Z" style="fill: rgb(255, 255, 255); transform-origin: 273.696px 250.366px;" id="elo4thzr2xvfd" class="animable"></path><path d="M282.79,242.4c.11,0,3.87.94,3.95,1C287,242.5,283,241.46,282.79,242.4Z" style="fill: rgb(255, 255, 255); transform-origin: 284.771px 242.715px;" id="ellwdqohdvcn" class="animable"></path><path d="M265.23,200.54l-12.71,15.75s-20.71-6.39-23.17-3.56l31.16,23.92L279,211.06Z" style="fill: rgb(38, 50, 56); transform-origin: 254.175px 218.595px;" id="elwlf7e5yscp" class="animable"></path><path d="M263.19,222.34a1.52,1.52,0,0,1-2.35,1.91c-1.3-1.69,1.35-3.56,2.44-1.78" style="fill: rgb(224, 224, 224); transform-origin: 261.97px 223.23px;" id="elczf49kx8yam" class="animable"></path><path d="M260.51,236.65l1.85-2.59-30.57-22s-1.85-.46-2.44.63Z" style="fill: rgb(69, 90, 100); transform-origin: 245.855px 224.307px;" id="elejl2b85edrv" class="animable"></path><path d="M252.14,215.75c-.12.15.59.81,1,1.87s.28,2,.46,2.06C254.64,219.27,253.21,215.37,252.14,215.75Z" style="fill: rgb(255, 255, 255); transform-origin: 253.044px 217.702px;" id="elac87zifg5bk" class="animable"></path><path d="M247.83,214.59c-.15.12.31.89.34,1.93s-.35,1.83-.2,1.94C249.12,218.44,249,214.53,247.83,214.59Z" style="fill: rgb(255, 255, 255); transform-origin: 248.286px 216.525px;" id="el6fqgc39nnvm" class="animable"></path><path d="M243,217.08c.91.29,1.73-3.41.79-3.53C243.78,213.67,243,217,243,217.08Z" style="fill: rgb(255, 255, 255); transform-origin: 243.603px 215.323px;" id="eltmil3lnetv" class="animable"></path><g id="elmjsnarvx9t8"><g style="opacity: 0.3; transform-origin: 321.88px 176.16px;" class="animable"><path d="M341,187s-22.57-8.84-28.54-13a55,55,0,0,1-9.7-8.68Z" id="elasy9zoa918j" class="animable" style="transform-origin: 321.88px 176.16px;"></path></g></g></g><g id="freepik--character-2--inject-97" class="animable animator-active" style="transform-origin: 298.666px 387.29px;"><rect x="233.83" y="438.82" width="250.38" height="30.63" style="fill: rgb(69, 90, 100); transform-origin: 359.02px 454.135px;" id="eluoxp5qe5qe" class="animable"></rect><path d="M481.82,481.84l33.9-29.52a2.09,2.09,0,0,0-.1-3.24l-35-26.84a2.09,2.09,0,0,0-3.37,1.7l1.07,56.35A2.1,2.1,0,0,0,481.82,481.84Z" style="fill: rgb(69, 90, 100); transform-origin: 496.845px 452.088px;" id="elf5rgr6lqamj" class="animable"></path><path d="M319.05,298.43,314.34,297c-5.7-2-10.43-.45-13.51,3.4s-4.28,9-4.11,13.9c.11,3.18.73,6.53-.55,9.44A17,17,0,0,1,293,328a12.57,12.57,0,0,0-2.88,4.42,4.67,4.67,0,0,0,1.09,4.9,11.25,11.25,0,0,1,1.75,1.39,5.27,5.27,0,0,1,.63,3,10.9,10.9,0,0,0,20.91,3.64c1.38-3.22,1.13-6.87,1-10.37A135.56,135.56,0,0,1,319.05,298.43Z" style="fill: rgb(38, 50, 56); transform-origin: 304.445px 324.052px;" id="el0uh7oznkkee" class="animable"></path><path d="M329.27,292.69c-4.08-1.21-7.93,0-11.72,1.88a21.61,21.61,0,0,0-11.18,21.89,16.6,16.6,0,0,0,6.91,11.08c5.09,3.4,12.12,3.27,17.4.19a21.08,21.08,0,0,0,9.74-14.85,20.19,20.19,0,0,0-1.75-12.3,15.35,15.35,0,0,0-9.4-7.89" style="fill: rgb(38, 50, 56); transform-origin: 323.448px 311.135px;" id="elb85w058l1d9" class="animable"></path><path d="M315.74,305.42c.8-1.52.78-3.32,1.22-5,1-3.65,4.33-6.27,8-7.31,3.38-1,7.28-.19,11,1.52a14.89,14.89,0,0,1,6.39,5.35,11.74,11.74,0,0,1,.89,10.74l-18.67-5.05a21.32,21.32,0,0,1-6.22,3.1,3.85,3.85,0,0,1-2,.08,1.78,1.78,0,0,1-1.33-1.39A3.74,3.74,0,0,1,315.74,305.42Z" style="fill: rgb(38, 50, 56); transform-origin: 329.58px 301.697px;" id="elzh9lrbooin9" class="animable"></path><path d="M335.71,300l-17,1.53a3.11,3.11,0,0,0-3.25,2.68l-4.11,35.94a11.23,11.23,0,0,0,1.53,7l1.34,2.23A8.24,8.24,0,0,0,328,350a4,4,0,0,0,.5-.89c.09-.32.2-.52.25-.79l.74-3.47c.54-3.17.95-6.42.95-6.39s6.9,0,9.68-8.59c1.39-4.24,2.31-11.42,2.87-17.32C343.49,307.24,341,300.23,335.71,300Z" style="fill: rgb(255, 191, 157); transform-origin: 327.168px 326.713px;" id="el8bzesurrg7t" class="animable"></path><path d="M339.77,319.66a1.14,1.14,0,0,1-1.26,1,1.08,1.08,0,0,1-1-1.2,1.13,1.13,0,0,1,1.26-1A1.09,1.09,0,0,1,339.77,319.66Z" style="fill: rgb(38, 50, 56); transform-origin: 338.639px 319.559px;" id="elf06j4u0o2z" class="animable"></path><path d="M340.84,316c-.16.12-.91-.64-2.12-.83s-2.19.27-2.3.1.13-.32.56-.54a3.07,3.07,0,0,1,1.87-.26,3,3,0,0,1,1.66.84C340.84,315.68,340.92,316,340.84,316Z" style="fill: rgb(38, 50, 56); transform-origin: 338.631px 315.218px;" id="elww70bc0fas" class="animable"></path><path d="M329,318.36a1.14,1.14,0,0,1-1.27,1,1.09,1.09,0,0,1-1-1.19,1.15,1.15,0,0,1,1.27-1A1.1,1.1,0,0,1,329,318.36Z" style="fill: rgb(38, 50, 56); transform-origin: 327.865px 318.266px;" id="elk1fj5bcbtf8" class="animable"></path><path d="M329.34,314.34c-.16.12-.92-.64-2.12-.83s-2.2.27-2.3.1.12-.32.56-.54a3.13,3.13,0,0,1,1.87-.26,3,3,0,0,1,1.66.84C329.33,314,329.42,314.28,329.34,314.34Z" style="fill: rgb(38, 50, 56); transform-origin: 327.132px 313.559px;" id="elyr4niuyruh" class="animable"></path><path d="M331.88,324a8.26,8.26,0,0,1,2,0c.31,0,.61,0,.7-.2a1.57,1.57,0,0,0-.06-.94c-.17-.8-.35-1.63-.54-2.5a41.94,41.94,0,0,1-1.07-6.48,40.86,40.86,0,0,1,1.59,6.38c.17.87.34,1.71.5,2.5a1.78,1.78,0,0,1,0,1.24.77.77,0,0,1-.58.37,1.84,1.84,0,0,1-.53,0A8,8,0,0,1,331.88,324Z" style="fill: rgb(38, 50, 56); transform-origin: 333.496px 319.135px;" id="elpddwusbtqwp" class="animable"></path><path d="M330.43,338.46a22.62,22.62,0,0,1-11.24-5s2,6.53,10.89,7.11Z" style="fill: rgb(255, 154, 108); transform-origin: 324.81px 337.015px;" id="ely16uzuz77ic" class="animable"></path><path d="M330.9,326.85a2.18,2.18,0,0,0-1.82-1.12,2,2,0,0,0-1.49.52,1.27,1.27,0,0,0-.33,1.42,1.49,1.49,0,0,0,1.52.66,4.85,4.85,0,0,0,1.69-.68,1.36,1.36,0,0,0,.41-.3.42.42,0,0,0,.07-.45" style="fill: rgb(255, 154, 108); transform-origin: 329.077px 327.04px;" id="eldq9nilvi3qt" class="animable"></path><path d="M328.19,324.28c.19,0,0,1.34,1,2.45s2.4,1.19,2.38,1.37-.35.21-.95.13a3.27,3.27,0,0,1-2-1.07,2.87,2.87,0,0,1-.73-2C327.9,324.57,328.1,324.26,328.19,324.28Z" style="fill: rgb(38, 50, 56); transform-origin: 329.729px 326.275px;" id="elglza2apib6k" class="animable"></path><path d="M330.32,310.07c-.17.31-1.36,0-2.8-.1s-2.66.15-2.8-.17c-.06-.16.19-.43.7-.68a4.74,4.74,0,0,1,2.16-.39,4.59,4.59,0,0,1,2.11.6C330.17,309.62,330.39,309.92,330.32,310.07Z" style="fill: rgb(38, 50, 56); transform-origin: 327.522px 309.464px;" id="eli8jbsneyjr" class="animable"></path><path d="M341.89,310.73c-.26.24-1-.18-2-.35s-1.88-.12-2-.43c-.07-.16.11-.41.52-.61a2.9,2.9,0,0,1,1.74-.19,2.93,2.93,0,0,1,1.55.82C341.93,310.3,342,310.61,341.89,310.73Z" style="fill: rgb(38, 50, 56); transform-origin: 339.908px 309.948px;" id="eljj8lfwtwzn" class="animable"></path><path d="M313,302.49c2.32-4.84,10.66-10.83,15.92-9.72l7.77,6.28a8.26,8.26,0,0,1-6.43,5.48c-1.57.25-3.39.12-4.46,1.29s-.83,3.18-1.87,4.42c-1.44,1.72-4.64,1.18-5.8,3.09-.51.84-.46,1.93-1,2.75-.69,1.1-3.88,2.18-5.06,1.61s-.88-2.65-1.13-3.81a5.78,5.78,0,0,1,.37-3.92C312.21,307.55,311.9,304.8,313,302.49Z" style="fill: rgb(38, 50, 56); transform-origin: 323.723px 305.242px;" id="elduh4x2o4rj" class="animable"></path><path d="M315.58,319.24c.1-.65.23-1.58-.36-1.88-1.76-.88-5.48-1.53-6.2,2.83-1,6,5.2,5.74,5.24,5.57S315.23,321.5,315.58,319.24Z" style="fill: rgb(255, 191, 157); transform-origin: 312.289px 321.271px;" id="elqrkexvrc80g" class="animable"></path><path d="M312.81,323.19s-.11.06-.3.11a1,1,0,0,1-.78-.11,2.62,2.62,0,0,1-.81-2.51,3.66,3.66,0,0,1,.54-1.44,1.24,1.24,0,0,1,.92-.67.53.53,0,0,1,.56.39c.05.18,0,.29,0,.31s.14-.08.13-.34a.65.65,0,0,0-.17-.41.81.81,0,0,0-.55-.25,1.49,1.49,0,0,0-1.24.75,3.7,3.7,0,0,0-.64,1.6,2.74,2.74,0,0,0,1.09,2.83,1.13,1.13,0,0,0,1,0C312.78,323.34,312.83,323.21,312.81,323.19Z" style="fill: rgb(255, 154, 108); transform-origin: 311.738px 320.918px;" id="elvk9zz5nl41e" class="animable"></path><path d="M335.17,297c.26,2.51,3.6,6.08,5,8.18,2.68,4,3.15,5.28,2.14,13.39,1.81-2.62,3.26-5.24,3.53-8.41a13.19,13.19,0,0,0-2.45-9,10.24,10.24,0,0,0-8.22-4.14" style="fill: rgb(38, 50, 56); transform-origin: 340.535px 307.785px;" id="elzw2tld8k65s" class="animable"></path><path d="M310.94,301c3.41-4.92,7.74-7.54,11.64-8.33" style="fill: rgb(38, 50, 56); transform-origin: 316.76px 296.835px;" id="el3scjpisddqm" class="animable"></path><path d="M309.62,324.06s-.09-.08-.25-.27-.37-.49-.63-.88a12.57,12.57,0,0,1-1.58-3.64,23.88,23.88,0,0,1-.75-5.83,17.49,17.49,0,0,1,1.27-7.08,24.72,24.72,0,0,1,3.48-6.31,22.82,22.82,0,0,1,4.13-4.19,16.84,16.84,0,0,1,3.41-2c.43-.18.77-.32,1-.39l.36-.11s-.47.22-1.3.63a18.54,18.54,0,0,0-3.31,2.1,23.57,23.57,0,0,0-4,4.19,25.32,25.32,0,0,0-3.4,6.23,17.39,17.39,0,0,0-1.27,6.94,24.79,24.79,0,0,0,.66,5.78,14.24,14.24,0,0,0,1.45,3.63C309.33,323.64,309.65,324,309.62,324.06Z" style="fill: rgb(69, 90, 100); transform-origin: 313.231px 308.71px;" id="elge54ca562c" class="animable"></path><path d="M339.79,400.69s34.33-3.89,39.93-4.84c10.73-1.82,21.47-.08,26,9.14,2.08,4.2-.55,12.3-6.84,18.31-4.69,4.49-28,28.05-28,28.05l-20-16.67,24.71-19.22-47.9,6.73Z" style="fill: rgb(38, 50, 56); transform-origin: 367.055px 423.278px;" id="el8470z89ypav" class="animable"></path><path d="M375.39,439.85l-12.84,13.56s9.7,17.82,7.58,20.56L342.47,449.6l19.13-22Z" style="fill: rgb(38, 50, 56); transform-origin: 358.93px 450.785px;" id="elswvbyxjkc2" class="animable"></path><path d="M355,444.69a1.48,1.48,0,0,0-1.9.58,1.44,1.44,0,0,0,.59,1.89,1.56,1.56,0,0,0,2-.62,1.51,1.51,0,0,0-.84-1.9" style="fill: rgb(224, 224, 224); transform-origin: 354.365px 445.927px;" id="el3y38vms7jqd" class="animable"></path><path d="M342.47,449.6l1.93-2.22,26,24.35a3.08,3.08,0,0,1-.21,2.26Z" style="fill: rgb(224, 224, 224); transform-origin: 356.497px 460.685px;" id="elqw9s1bjt2wb" class="animable"></path><path d="M363.12,453.67c-.12.13-.85-.41-1.89-.57s-1.89.09-2-.07.8-.75,2.06-.54S363.25,453.57,363.12,453.67Z" style="fill: rgb(255, 255, 255); transform-origin: 361.178px 453.068px;" id="elnlwojdbpyvh" class="animable"></path><path d="M365,457.41c-.08.15-.87-.14-1.82,0s-1.61.63-1.74.51.45-.95,1.64-1.12S365.09,457.28,365,457.41Z" style="fill: rgb(255, 255, 255); transform-origin: 363.214px 457.355px;" id="el8spbrilzhn5" class="animable"></path><path d="M363.62,462.27c-.14-.08.25-.91,1.24-1.33s1.87-.15,1.83,0-.77.2-1.58.56S363.77,462.38,363.62,462.27Z" style="fill: rgb(255, 255, 255); transform-origin: 365.142px 461.5px;" id="eltz235dhigce" class="animable"></path><path d="M365.7,450.25c-.17.07-.63-.66-1.44-1.28s-1.61-.91-1.58-1.09,1-.14,2,.6S365.85,450.2,365.7,450.25Z" style="fill: rgb(255, 255, 255); transform-origin: 364.213px 449.022px;" id="elix7smzxff6c" class="animable"></path><path d="M384.66,437.49a1.69,1.69,0,0,1-.25.3l-.76.81-2.86,3L371,451.48l-.12.12-.13-.11-2.49-2.07L356,439.05l-3.7-3.17-1-.88a1.74,1.74,0,0,1-.33-.32,1.86,1.86,0,0,1,.38.27l1,.82,3.78,3.08,12.4,10.28,2.48,2.08-.24,0,9.84-9.84,2.94-2.88.8-.77A1.69,1.69,0,0,1,384.66,437.49Z" style="fill: rgb(69, 90, 100); transform-origin: 367.815px 443.14px;" id="eljwy2cr6fz7t" class="animable"></path><path d="M413.87,436.39l16.86,14.88,16.72,7.91a2.31,2.31,0,0,1,1,3.21h0a2.32,2.32,0,0,1-1.76,1.17c-4.73.5-22.12,2.27-23.29,1.11-1.36-1.34-18.83-14.51-18.83-14.51Z" style="fill: rgb(38, 50, 56); transform-origin: 426.659px 450.723px;" id="elbcw5d1j2iyb" class="animable"></path><path d="M448.48,462.39l-26.21,1.3,1.16,1a2.34,2.34,0,0,0,1.81.46c2.2,0,8.29-.18,21.44-1.52a2.32,2.32,0,0,0,1.8-1.22Z" style="fill: rgb(224, 224, 224); transform-origin: 435.375px 463.785px;" id="eln8ky5dkgbp" class="animable"></path><g id="elmi0rapox6tb"><g style="opacity: 0.6; transform-origin: 422.611px 458.535px;" class="animable"><path d="M422.26,457.28a1.38,1.38,0,0,1,1.63.88,1.33,1.33,0,0,1-.86,1.63,1.48,1.48,0,0,1-1.73-.94,1.4,1.4,0,0,1,1.09-1.6" style="fill: rgb(255, 255, 255); transform-origin: 422.611px 458.535px;" id="eloxjb3f4whri" class="animable"></path></g></g><path d="M437.66,460a6.89,6.89,0,0,1-.07-2.63,7,7,0,0,1,1.29-2.3c0-.05-.35.06-.74.41a3.58,3.58,0,0,0-1,1.77,3.5,3.5,0,0,0,.08,2C437.37,459.78,437.61,460,437.66,460Z" style="fill: rgb(255, 255, 255); transform-origin: 437.956px 457.529px;" id="elasf8fxle5o9" class="animable"></path><path d="M441,460.71a18.86,18.86,0,0,1,.54-2.15c.47-1.11,1.28-1.74,1.2-1.86s-1.11.4-1.65,1.67A2.54,2.54,0,0,0,441,460.71Z" style="fill: rgb(255, 255, 255); transform-origin: 441.751px 458.697px;" id="eli1ce9h6dn8" class="animable"></path><path d="M432.78,459.79a23,23,0,0,1,.62-3.37,23.86,23.86,0,0,1,1.55-3.05,6.3,6.3,0,0,0-2.17,6.42Z" style="fill: rgb(255, 255, 255); transform-origin: 433.773px 456.58px;" id="elrnm1irj283" class="animable"></path><path d="M427.28,455.69c.14,0,.55-1.24,1.54-2.51s2.12-2,2.05-2.13a4.4,4.4,0,0,0-2.44,1.83A4.53,4.53,0,0,0,427.28,455.69Z" style="fill: rgb(255, 255, 255); transform-origin: 429.077px 453.37px;" id="elc2r73vn0qn8" class="animable"></path><path d="M423.52,453.06a11.66,11.66,0,0,1,1.54-2.67,11.21,11.21,0,0,1,2.49-1.79c0-.06-.38-.06-.95.15a5,5,0,0,0-3,3.35C423.43,452.68,423.46,453.05,423.52,453.06Z" style="fill: rgb(255, 255, 255); transform-origin: 425.511px 450.813px;" id="el0tko58m01hio" class="animable"></path><path d="M285,416c.34.86-1.18,28.45,25,28.62,23.51.15,55.12-21.39,58.72-20,2.36.91,42.93,36.15,42.93,36.15l14.64-17.19s-37.54-35.82-41.23-38.4c-7.9-5.53-13.46-5.49-26.47-3.13-11.63,2.1-40.13,11.57-40.13,11.57l-2.74-2.33Z" style="fill: rgb(38, 50, 56); transform-origin: 355.645px 430.655px;" id="eldu7vhzssxb" class="animable"></path><path d="M350.18,404.77l.44-.19,1.31-.49c1.16-.42,2.88-1,5.13-1.64a63.33,63.33,0,0,1,8.35-1.76,33.21,33.21,0,0,1,5.33-.37,27.46,27.46,0,0,1,5.95.75,28.8,28.8,0,0,1,12.14,6.28c3.62,3.37,7.4,7.06,11.43,10.9l26.18,25.14.13.12-.11.13-2,2.37c-2.17,2.55-4.42,5.15-6.65,7.54s-4.24,4.79-6.29,7.17l.06.13-23-19.88-9.85-8.53-4.42-3.84-2.08-1.8c-.34-.29-.67-.59-1-.85a6.31,6.31,0,0,0-1.1-.62,5.65,5.65,0,0,0-4.63.07l-3.88,1.91-6.18,3-3.88,1.89-1,.48-.35.16.33-.18,1-.52,3.85-1.94,6.16-3.08,3.87-1.92a5.87,5.87,0,0,1,4.81-.11,6.53,6.53,0,0,1,1.15.65c.36.27.69.57,1,.86l2.08,1.79,4.45,3.82,9.87,8.5,23,19.84.06.13c2-2.41,4.13-4.88,6.15-7.44s4-5,6.18-7.52l2-2.34v.25L400,418.49c-4-3.84-7.79-7.55-11.39-10.92a28.65,28.65,0,0,0-12-6.25,27.62,27.62,0,0,0-5.89-.77,33.11,33.11,0,0,0-5.3.34,64.1,64.1,0,0,0-8.34,1.7c-2.26.61-4,1.17-5.14,1.57l-1.32.46Z" style="fill: rgb(69, 90, 100); transform-origin: 388.375px 430.584px;" id="el1uajl2tzdhj" class="animable"></path><path d="M335.83,343.53s8.68,3.45,9.71,10.79c.86,6.12-1.05,22.42-1,23.52a3.88,3.88,0,0,0,.92,2.64,6.1,6.1,0,0,1,1.64,4.19,6.68,6.68,0,0,1-.53,3.05c-1,1.68-10.6,12.81-10.6,12.81l-8.54-17.75s5.6-16.63,5.64-17.06S335.83,343.53,335.83,343.53Z" style="fill: rgb(244, 169, 66); transform-origin: 337.271px 372.03px;" id="elm3xy8phxrn" class="animable"></path><path d="M345.66,387c.37.05,12.89,8.95,12.89,8.95s3.06-5.91,4.43-6.08,5.59,1.44,6,1.89a3.15,3.15,0,0,0,2,.59c.82.08,2.29,2.15,2.29,2.15l2.82,2.1s-.88,1.65-1.12,1.93-2.14-.51-2.11-.81.24,1.85-1.22,1.91a8.05,8.05,0,0,1-3.35-.93l-.49-2.48-3.63-2.36-.43,2.38s3.67.76,3.56,2a1.88,1.88,0,0,1-1.19,1.57l-3-.07-6.69,1.6s-17.54-3.87-18.18-5.87S340.52,386.31,345.66,387Z" style="fill: rgb(255, 191, 157); transform-origin: 357.121px 394.147px;" id="el7hx6vqwdkzx" class="animable"></path><path d="M345.79,382.85a12.19,12.19,0,0,1,3.46,4.82c.78,1.77,9.14,7.89,9.14,7.89l-6.78,5.49s-14.14.58-14.81-1.52,1.55-11.48,1.55-11.48Z" style="fill: rgb(244, 169, 66); transform-origin: 347.532px 391.987px;" id="eldy01y5fz5e9" class="animable"></path><path d="M337,406.72h0a1.2,1.2,0,0,0,1.42.86L363,402.2l21.13-3.85.18-1.87-20.2,2.89-26.23,5.86A1.2,1.2,0,0,0,337,406.72Z" style="fill: rgb(224, 224, 224); transform-origin: 360.633px 402.044px;" id="eliz5srbhuyyq" class="animable"></path><path d="M375.4,370.45,364,399.56a1.6,1.6,0,0,0,1.76,2.17l25.1-4.63a1.58,1.58,0,0,0,1.23-1l11.41-28.89a.85.85,0,0,0-.87-1.16l-25.9,3.39A1.59,1.59,0,0,0,375.4,370.45Z" style="fill: rgb(224, 224, 224); transform-origin: 383.723px 383.9px;" id="el4be6jg13hpe" class="animable"></path><path d="M378,369.44c.09,0-2.63,7.28-6.09,16.19s-6.33,16.09-6.42,16.05,2.63-7.28,6.08-16.19S377.87,369.4,378,369.44Z" style="fill: rgb(38, 50, 56); transform-origin: 371.745px 385.56px;" id="el50e4mqieixa" class="animable"></path><g id="el6q1geu3xu9"><ellipse cx="385.64" cy="383.9" rx="2.85" ry="1.55" style="fill: rgb(255, 255, 255); transform-origin: 385.64px 383.9px; transform: rotate(-63.24deg);" class="animable"></ellipse></g><path d="M337.38,402.19s-2.05-8.63-1.64-10.21c1.18-4.55,7.27-16,6.76-22.91s-6.67-25.54-6.67-25.54l-5.88-2c-2.38,5.18-11.6,4-19.13-2.05l-9.44,1.91-14.79,46-2.48,16.75c-6,7.82.91,11.94.91,11.94s11.39,3.58,20.39,2c6.73-1.2,16.55-5.95,18.75-7.68,5.27-4.13,13.62-3.84,13.62-3.84Z" style="fill: rgb(244, 169, 66); transform-origin: 312.095px 378.981px;" id="elfpax74koo1m" class="animable"></path><path d="M320.87,402.62l6.16,2.51s3.42-2,3.92-2.23a71.92,71.92,0,0,1,8.66-1.06,17,17,0,0,0,2.86-.19l-8.14,5-5.16,6.87a15.53,15.53,0,0,1-4.39.76,47.53,47.53,0,0,1-7.6-1.29Z" style="fill: rgb(255, 191, 157); transform-origin: 329.825px 407.965px;" id="elrc5b9aekmf" class="animable"></path><path d="M302.56,341.21s-10.81.64-14.61,9.27c-2.54,5.76-7.77,31.1-8.54,35.74s0,10.28,3.71,13.2,34.51,16,34.51,16l6.42-12.37-26-16.13h-.84l3.11-18.61" style="fill: rgb(244, 169, 66); transform-origin: 301.595px 378.315px;" id="elrnc4leeufkk" class="animable"></path><path d="M300.34,368.34s0,.11,0,.32-.08.54-.14.94c-.14.85-.33,2.08-.59,3.66-.52,3.21-1.28,7.86-2.23,13.71l-.11-.13h.88l0,0,26,16.09.14.08-.08.14-6.4,12.37-.08.15-.15-.06c-6.25-2.67-12.91-5.58-19.74-8.67q-4.05-1.83-7.95-3.7c-1.3-.63-2.59-1.26-3.85-1.93a16.65,16.65,0,0,1-3.59-2.28,10,10,0,0,1-2.34-3.48,14.45,14.45,0,0,1-1-4,19.31,19.31,0,0,1,0-4c.13-1.32.4-2.6.64-3.86,1-5,2-9.81,3-14.26s2-8.59,3-12.34c.51-1.88,1-3.65,1.6-5.31a15.1,15.1,0,0,1,2.36-4.35,15.87,15.87,0,0,1,3.17-2.92,18.69,18.69,0,0,1,3.19-1.72,21.72,21.72,0,0,1,4.79-1.4c.57-.1,1-.15,1.29-.18l.45,0-.44.06-1.28.21a22.69,22.69,0,0,0-4.76,1.46,18.78,18.78,0,0,0-3.14,1.73,15.82,15.82,0,0,0-3.11,2.9,15.13,15.13,0,0,0-2.3,4.31c-.56,1.65-1.07,3.42-1.57,5.3-1,3.74-2,7.88-3,12.34s-2,9.22-3,14.26c-.23,1.26-.5,2.53-.62,3.82a18.64,18.64,0,0,0,0,3.95,11.87,11.87,0,0,0,3.24,7.24,16.65,16.65,0,0,0,3.52,2.22c1.26.66,2.54,1.29,3.84,1.92q3.9,1.88,8,3.7c6.82,3.09,13.47,6,19.72,8.67l-.23.08c2.23-4.29,4.38-8.43,6.43-12.36l.06.22L298,387.06l.06,0h-1l0-.13c1-5.84,1.8-10.49,2.34-13.69.28-1.58.5-2.81.64-3.65.08-.4.13-.71.18-.94S300.34,368.34,300.34,368.34Z" style="fill: rgb(38, 50, 56); transform-origin: 301.648px 378.44px;" id="ell8olh1b2mkf" class="animable"></path><path d="M341.56,354.32s-.14.65-.27,1.83a17.57,17.57,0,0,0-.07,2.16c0,.84.14,1.8.28,2.86a61.85,61.85,0,0,1,.77,7.48,23.19,23.19,0,0,1-1.45,9.08c-1.19,3.06-2.74,5.78-3.7,8.41a17.44,17.44,0,0,0-.77,7.34c.13,2.13.33,3.85.45,5,.06.56.11,1,.14,1.37a2.87,2.87,0,0,1,0,.48,1.69,1.69,0,0,1-.1-.47c-.05-.35-.12-.8-.21-1.36-.16-1.19-.41-2.9-.57-5a17.37,17.37,0,0,1,.71-7.47c1-2.69,2.51-5.4,3.68-8.43a23.22,23.22,0,0,0,1.45-9,66,66,0,0,0-.68-7.45,27,27,0,0,1-.23-2.88,13.84,13.84,0,0,1,.13-2.19,10.85,10.85,0,0,1,.27-1.35A2.19,2.19,0,0,1,341.56,354.32Z" style="fill: rgb(38, 50, 56); transform-origin: 339.109px 377.325px;" id="el55q6z5iigpi" class="animable"></path><path d="M303.4,359.31c-.07,0,.27-1,.45-2.58a16.06,16.06,0,0,0,0-2.81,16,16,0,0,0-3.66-8.85c-1-1.23-1.84-1.85-1.79-1.91a2.68,2.68,0,0,1,.58.41,12.07,12.07,0,0,1,1.4,1.33,15.13,15.13,0,0,1,3.15,5.53,16.4,16.4,0,0,1,.66,3.46,14.36,14.36,0,0,1-.13,2.88,9,9,0,0,1-.21,1.08,4.91,4.91,0,0,1-.23.8A2.62,2.62,0,0,1,303.4,359.31Z" style="fill: rgb(38, 50, 56); transform-origin: 301.305px 351.235px;" id="el3x3m6k31in5" class="animable"></path><path d="M318.38,385a15.27,15.27,0,0,0,2.93-1.13,13.42,13.42,0,0,0,1.33-.86,14.63,14.63,0,0,0,1.36-1.2,15.84,15.84,0,0,0,2.57-3.28,22.3,22.3,0,0,0,2.74-7.05c.37-1.91.39-3.13.47-3.13a4.11,4.11,0,0,1,0,.86,16.63,16.63,0,0,1-.23,2.32,20.55,20.55,0,0,1-2.68,7.19,15.51,15.51,0,0,1-2.64,3.33,14.85,14.85,0,0,1-1.42,1.2,12,12,0,0,1-1.39.84,8.14,8.14,0,0,1-1.23.53,5.38,5.38,0,0,1-1,.27A3.13,3.13,0,0,1,318.38,385Z" style="fill: rgb(38, 50, 56); transform-origin: 324.091px 376.675px;" id="elkhw14pn2kxo" class="animable"></path><path d="M290.39,390.33a8.69,8.69,0,0,1,3.5-2.53,8.79,8.79,0,0,1,4.23-.89,27.55,27.55,0,0,0-4.08,1.22A25.69,25.69,0,0,0,290.39,390.33Z" style="fill: rgb(38, 50, 56); transform-origin: 294.255px 388.616px;" id="elbpd2hkdxbr" class="animable"></path><path d="M344.08,403.28a1.11,1.11,0,0,1-.84.91,1.27,1.27,0,0,1-.28,0c-.67,0-1-1.27-1-1.27l-3.06.42s-4.36,5.53-5.9,7.1c-6.05,6.18-7.63,1.72-7.63,1.72l1.88-7.26,3.87-6.48s-.24.39-.15-.63,1.88-1.19,1.88-1.19c.12-.53,1.17-1,1.17-1l4.86-.9a3.34,3.34,0,0,1,2.81.76l2.95,2.53s1.74,1.94,1.73,2.52a1,1,0,0,1-.9,1s.22,1.56-.15,1.73a3.21,3.21,0,0,1-1.25.08Z" style="fill: rgb(255, 191, 157); transform-origin: 335.87px 404.179px;" id="el62murmmas8" class="animable"></path><path d="M332.72,401.89c0,.05.63-.2,1.64-.47a15.28,15.28,0,0,1,4.06-.45,13.85,13.85,0,0,1,2.23.24,3.17,3.17,0,0,1,1.65.58.63.63,0,0,1,.12.58.89.89,0,0,1-.27.41c-.21.17-.39.15-.39.18s.19.09.46-.09a.84.84,0,0,0,.36-.45.79.79,0,0,0-.11-.77,1.64,1.64,0,0,0-.79-.48c-.31-.09-.63-.18-1-.25a13.34,13.34,0,0,0-2.29-.26,12.55,12.55,0,0,0-4.12.55A5.73,5.73,0,0,0,332.72,401.89Z" style="fill: rgb(255, 154, 108); transform-origin: 337.677px 401.823px;" id="elh8phwpxavrb" class="animable"></path><path d="M333.31,405c0,.09,1.92-.57,4.31-1.16s4.37-.87,4.35-1a5,5,0,0,0-1.31.08,29.71,29.71,0,0,0-3.12.58,30.46,30.46,0,0,0-3,.92A5.78,5.78,0,0,0,333.31,405Z" style="fill: rgb(255, 154, 108); transform-origin: 337.64px 403.918px;" id="el4jo2q7tjtpd" class="animable"></path><path d="M344,403.17a1.65,1.65,0,0,0-.09-.52,10.57,10.57,0,0,0-.42-1.37,6.65,6.65,0,0,0-.42-.92,2.93,2.93,0,0,0-.78-.88,6.66,6.66,0,0,0-2.31-1.26,9.47,9.47,0,0,0-2.59-.45,8.34,8.34,0,0,0-2.12.31c-.59.16-1,.32-1.37.43a2,2,0,0,0-.49.2,14.45,14.45,0,0,0,1.91-.41,7.81,7.81,0,0,1,4.57.22,6.79,6.79,0,0,1,2.23,1.19,3.77,3.77,0,0,1,1.17,1.65C343.76,402.46,344,403.19,344,403.17Z" style="fill: rgb(255, 154, 108); transform-origin: 338.705px 400.47px;" id="elclipq4749k5" class="animable"></path><path d="M334.62,396.73s.73-.15,1.89-.37,2.88-.61,4.32.58a16.49,16.49,0,0,1,3.5,2.95,10.46,10.46,0,0,1,1,1.62,1.26,1.26,0,0,0-.12-.5,5,5,0,0,0-.68-1.25,14.46,14.46,0,0,0-3.5-3.08,5.38,5.38,0,0,0-1.2-.65,3.73,3.73,0,0,0-1.26-.18,10.58,10.58,0,0,0-2.09.3A7.42,7.42,0,0,0,334.62,396.73Z" style="fill: rgb(255, 154, 108); transform-origin: 339.975px 398.679px;" id="elxtcdxmgztkl" class="animable"></path><path d="M335.75,407.68a1.54,1.54,0,0,0,.21-.3l.6-.87a33.26,33.26,0,0,1,2.43-3.07l-.06,0,3.05-.39-.13-.09a3.28,3.28,0,0,0,.27.69,1.4,1.4,0,0,0,.54.6.76.76,0,0,0,.44.06,1.23,1.23,0,0,0,.42-.1,1.27,1.27,0,0,0,.6-.63,1,1,0,0,0,.07-.21l0,0v0h0l-.15.11h.12l.41,0,.43,0,.23-.05a.54.54,0,0,0,.25-.13,1,1,0,0,0,.17-.47c0-.15,0-.3,0-.45a6.65,6.65,0,0,0-.07-.88l-.13.17a1.15,1.15,0,0,0,1-.7,1,1,0,0,0,0-.65,2.43,2.43,0,0,0-.28-.53,15.52,15.52,0,0,0-1.44-1.84h0l-1.57-1.35-1-.86a6.46,6.46,0,0,0-1.05-.8,3.39,3.39,0,0,0-1.27-.38,4.39,4.39,0,0,0-1.27.12l-4.58.86h0a4.23,4.23,0,0,0-.71.44,1.4,1.4,0,0,0-.53.68l.15-.1a1.71,1.71,0,0,0-1.49.55,2,2,0,0,0-.38,1.41l0-.07c-1.12,1.85-2,3.37-2.67,4.45l-.72,1.22a2.48,2.48,0,0,0-.23.44,3.8,3.8,0,0,0,.29-.41l.77-1.18,2.76-4.4v-.07a1.76,1.76,0,0,1,.34-1.23,1.46,1.46,0,0,1,1.26-.45H333l0-.11a1.16,1.16,0,0,1,.43-.52,4.62,4.62,0,0,1,.67-.41h0l4.58-.83a4,4,0,0,1,1.19-.11,3.12,3.12,0,0,1,1.15.34,5.88,5.88,0,0,1,1,.77l1,.86,1.57,1.35h0a17,17,0,0,1,1.42,1.8,2.54,2.54,0,0,1,.24.46.7.7,0,0,1,0,.45.89.89,0,0,1-.72.51l-.15,0,0,.15a5.83,5.83,0,0,1,.06.84,1.4,1.4,0,0,1-.11.72l-.11.05-.18,0c-.13,0-.26,0-.4,0l-.39,0h-.11c.14-.1-.18.14-.15.12h0v.07a.93.93,0,0,1-.52.65.89.89,0,0,1-.32.08.49.49,0,0,1-.3,0,1.89,1.89,0,0,1-.69-1.12l0-.1H342l-3.05.44h0l0,0a30.09,30.09,0,0,0-2.38,3.15c-.25.39-.43.69-.55.9A2.08,2.08,0,0,0,335.75,407.68Z" style="fill: rgb(255, 154, 108); transform-origin: 336.957px 401.117px;" id="elmamagd2q2mj" class="animable"></path><g id="elw8y9i6vlq6"><g style="opacity: 0.3; transform-origin: 325.012px 378.15px;" class="animable"><path d="M329.53,371.68a22.36,22.36,0,0,1-2.94,7.35c-1.67,2.57-3.78,3.92-6.4,5.54l-.19.08a9.91,9.91,0,0,0,9.53-13Z" id="eln5wsq4vf4gd" class="animable" style="transform-origin: 325.012px 378.15px;"></path></g></g><g id="elufsxor0abi"><g style="opacity: 0.3; transform-origin: 474.175px 453.815px;" class="animable"><rect x="471.07" y="440.27" width="6.21" height="27.09" id="eldp1sj0cqm4o" class="animable" style="transform-origin: 474.175px 453.815px;"></rect></g></g><rect x="80.89" y="439.11" width="73.62" height="30.63" style="fill: rgb(69, 90, 100); transform-origin: 117.7px 454.425px;" id="el9tcmasvv33q" class="animable"></rect></g><defs>     <filter id="active" height="200%">         <feMorphology in="SourceAlpha" result="DILATED" operator="dilate" radius="2"></feMorphology>                <feFlood flood-color="#32DFEC" flood-opacity="1" result="PINK"></feFlood>        <feComposite in="PINK" in2="DILATED" operator="in" result="OUTLINE"></feComposite>        <feMerge>            <feMergeNode in="OUTLINE"></feMergeNode>            <feMergeNode in="SourceGraphic"></feMergeNode>        </feMerge>    </filter>    <filter id="hover" height="200%">        <feMorphology in="SourceAlpha" result="DILATED" operator="dilate" radius="2"></feMorphology>                <feFlood flood-color="#ff0000" flood-opacity="0.5" result="PINK"></feFlood>        <feComposite in="PINK" in2="DILATED" operator="in" result="OUTLINE"></feComposite>        <feMerge>            <feMergeNode in="OUTLINE"></feMergeNode>            <feMergeNode in="SourceGraphic"></feMergeNode>        </feMerge>            <feColorMatrix type="matrix" values="0   0   0   0   0                0   1   0   0   0                0   0   0   0   0                0   0   0   1   0 "></feColorMatrix>    </filter></defs></svg>